<svg width="24" height="24" viewBox="0 0 24 24" fill="none" xmlns="http://www.w3.org/2000/svg">
<path fill-rule="evenodd" clip-rule="evenodd" d="M5 6C5 5.44772 5.44772 5 6 5H18C18.5523 5 19 5.44772 19 6C19 6.55228 18.5523 7 18 7H6C5.44772 7 5 6.55228 5 6ZM5 10C5 9.44772 5.44772 9 6 9H18C18.5523 9 19 9.44772 19 10C19 10.5523 18.5523 11 18 11H6C5.44772 11 5 10.5523 5 10ZM6 13C5.44772 13 5 13.4477 5 14C5 14.5523 5.44772 15 6 15H10C10.5523 15 11 14.5523 11 14C11 13.4477 10.5523 13 10 13H6ZM5 18C5 17.4477 5.44772 17 6 17H10C10.5523 17 11 17.4477 11 18C11 18.5523 10.5523 19 10 19H6C5.44772 19 5 18.5523 5 18ZM14.7071 14.2929C14.3166 13.9024 13.6834 13.9024 13.2929 14.2929C12.9024 14.6834 12.9024 15.3166 13.2929 15.7071L16.2929 18.7071L17 19.4142L17.7071 18.7071L20.7071 15.7071C21.0976 15.3166 21.0976 14.6834 20.7071 14.2929C20.3166 13.9024 19.6834 13.9024 19.2929 14.2929L17 16.5858L14.7071 14.2929Z" fill="#0F1015" fill-opacity="0.98"/>
</svg>
