<svg xmlns="http://www.w3.org/2000/svg" width="1146" height="130" fill="none" viewBox="0 0 1146 130">
    <path fill="#FC5E38" fill-rule="evenodd" d="m16.097 129.619.194-.981c1.199.238 2.439.362 3.709.362h4.009v1H20c-1.336 0-2.64-.131-3.903-.381ZM1121.99 130v-1h4.01c1.27 0 2.51-.124 3.71-.362l.19.981c-1.26.25-2.56.381-3.9.381h-4.01Zm15.12-3.369-.55-.831a19.16 19.16 0 0 0 5.24-5.244l.83.556a20.123 20.123 0 0 1-5.52 5.519ZM1146 23.75h-1V20c0-1.27-.12-2.51-.36-3.71l.98-.193c.25 1.262.38 2.567.38 3.903v3.75Zm-3.37-14.862-.83.556a19.162 19.162 0 0 0-5.24-5.244l.55-.831a20.125 20.125 0 0 1 5.52 5.519ZM1113.98-1h-8.02v2h8.02v-2Zm-16.03 0h-8.02v2h8.02v-2Zm-16.03 0h-8.02v2h8.02v-2Zm-16.03 0h-8.01v2h8.01v-2Zm-16.03 0h-8.01v2h8.01v-2Zm-16.03 0h-8.01v2h8.01v-2Zm-16.03 0h-8.01v2h8.01v-2Zm-16.03 0h-8.011v2h8.011v-2Zm-16.025 0h-8.014v2h8.014v-2Zm-16.029 0h-8.014v2h8.014v-2Zm-16.029 0h-8.014v2h8.014v-2Zm-16.029 0h-8.014v2h8.014v-2Zm-16.029 0h-8.014v2h8.014v-2ZM905.6-1h-8.014v2h8.014v-2Zm-16.029 0h-8.014v2h8.014v-2Zm-16.029 0h-8.014v2h8.014v-2Zm-16.028 0h-8.015v2h8.015v-2Zm-16.029 0h-8.015v2h8.015v-2Zm-16.029 0h-8.015v2h8.015v-2Zm-16.029 0h-8.015v2h8.015v-2Zm-16.029 0h-8.015v2h8.015v-2Zm-16.029 0h-8.015v2h8.015v-2ZM761.34-1h-8.014v2h8.014v-2Zm-16.029 0h-8.014v2h8.014v-2Zm-16.029 0h-8.014v2h8.014v-2Zm-16.029 0h-8.014v2h8.014v-2Zm-16.029 0h-8.014v2h8.014v-2Zm-16.029 0h-8.014v2h8.014v-2Zm-16.029 0h-8.014v2h8.014v-2Zm-16.029 0h-8.014v2h8.014v-2Zm-16.028 0h-8.015v2h8.015v-2ZM617.08-1h-8.015v2h8.015v-2Zm-16.029 0h-8.015v2h8.015v-2Zm-16.029 0h-8.015v2h8.015v-2Zm-16.029 0h-8.015v2h8.015v-2Zm-16.029 0h-8.015v2h8.015v-2Zm-16.029 0h-8.015v2h8.015v-2Zm-16.029 0h-8.015v2h8.015v-2Zm-16.029 0h-8.015v2h8.015v-2Zm-16.029 0h-8.015v2h8.015v-2Zm-16.029 0h-8.015v2h8.015v-2ZM456.79-1h-8.015v2h8.015v-2Zm-16.029 0h-8.015v2h8.015v-2Zm-16.029 0h-8.015v2h8.015v-2Zm-16.029 0h-8.014v2h8.014v-2Zm-16.029 0h-8.014v2h8.014v-2Zm-16.029 0h-8.014v2h8.014v-2Zm-16.029 0h-8.014v2h8.014v-2Zm-16.029 0h-8.014v2h8.014v-2Zm-16.029 0h-8.014v2h8.014v-2Zm-16.029 0h-8.014v2h8.014v-2ZM296.5-1h-8.014v2h8.014v-2Zm-16.029 0h-8.014v2h8.014v-2Zm-16.029 0h-8.014v2h8.014v-2Zm-16.029 0h-8.014v2h8.014v-2Zm-16.029 0h-8.014v2h8.014v-2Zm-16.029 0h-8.014v2h8.014v-2Zm-16.029 0h-8.014v2h8.014v-2Zm-16.029 0h-8.014v2h8.014v-2Zm-16.029 0h-8.014v2h8.014v-2Zm-16.029 0h-8.014v2h8.014v-2ZM136.21-1h-8.014v2h8.014v-2Zm-16.029 0h-8.014v2h8.014v-2Zm-16.029 0h-8.014v2h8.014v-2ZM88.123-1H80.11v2h8.014v-2ZM72.094-1H64.08v2h8.014v-2ZM56.065-1h-8.014v2h8.014v-2ZM40.036-1h-8.014v2h8.014v-2ZM24.007 0H20c-1.336 0-2.64.13-3.903.38l.194.982A19.098 19.098 0 0 1 20 1h4.007V0ZM8.887 3.369l.557.83A19.11 19.11 0 0 0 4.2 9.445l-.831-.556a20.11 20.11 0 0 1 5.519-5.52ZM0 106.25h1V110c0 1.27.125 2.51.362 3.709l-.981.194A20.09 20.09 0 0 1 0 110v-3.75Zm3.369 14.862.83-.556a19.108 19.108 0 0 0 5.245 5.244l-.556.831a20.108 20.108 0 0 1-5.52-5.519ZM0 98.75h1v-7.5H0v7.5Zm0-15h1v-7.5H0v7.5Zm0-15h1v-7.5H0v7.5Zm0-15h1v-7.5H0v7.5Zm0-15h1v-7.5H0v7.5Zm0-15h1V20c0-1.27.125-2.51.362-3.71l-.981-.193A20.097 20.097 0 0 0 0 20v3.75ZM1121.99 0v1h4.01c1.27 0 2.51.125 3.71.362l.19-.981M1146 31.25h-1v7.5h1v-7.5Zm0 15h-1v7.5h1v-7.5Zm0 15h-1v7.5h1v-7.5Zm0 15h-1v7.5h1v-7.5Zm0 15h-1v7.5h1v-7.5Zm0 15h-1V110c0 1.27-.12 2.51-.36 3.709l.98.194c.25-1.262.38-2.567.38-3.903v-3.75ZM1113.98 130v-1h-8.02v1h8.02Zm-16.03 0v-1h-8.02v1h8.02Zm-16.03 0v-1h-8.01v1h8.01Zm-16.03 0v-1h-8.01v1h8.01Zm-16.03 0v-1h-8.01v1h8.01Zm-16.03 0v-1h-8.01v1h8.01Zm-16.03 0v-1h-8.01v1h8.01Zm-16.02 0v-1h-8.019v1h8.019Zm-16.034 0v-1h-8.014v1h8.014Zm-16.029 0v-1h-8.014v1h8.014Zm-16.029 0v-1h-8.014v1h8.014Zm-16.029 0v-1h-8.014v1h8.014Zm-16.029 0v-1h-8.014v1h8.014Zm-16.029 0v-1h-8.014v1h8.014Zm-16.029 0v-1h-8.014v1h8.014Zm-16.029 0v-1h-8.014v1h8.014Zm-16.029 0v-1H849.5v1h8.014Zm-16.029 0v-1h-8.014v1h8.014Zm-16.029 0v-1h-8.014v1h8.014Zm-16.029 0v-1h-8.014v1h8.014Zm-16.029 0v-1h-8.014v1h8.014Zm-16.028 0v-1h-8.015v1h8.015Zm-16.03 0v-1h-8.014v1h8.014Zm-16.029 0v-1h-8.014v1h8.014Zm-16.028 0v-1h-8.015v1h8.015Zm-16.029 0v-1h-8.015v1h8.015Zm-16.03 0v-1h-8.014v1h8.014Zm-16.029 0v-1h-8.014v1h8.014Zm-16.028 0v-1h-8.015v1h8.015Zm-16.029 0v-1h-8.015v1h8.015Zm-16.029 0v-1h-8.015v1h8.015Zm-16.029 0v-1h-8.015v1h8.015Zm-16.029 0v-1h-8.015v1h8.015Zm-16.029 0v-1h-8.015v1h8.015Zm-16.029 0v-1h-8.015v1h8.015Zm-16.029 0v-1h-8.015v1h8.015Zm-16.029 0v-1h-8.015v1h8.015Zm-16.029 0v-1h-8.015v1h8.015Zm-16.029 0v-1h-8.014v1h8.014Zm-16.029 0v-1h-8.014v1h8.014Zm-16.029 0v-1h-8.014v1h8.014Zm-16.029 0v-1h-8.014v1h8.014Zm-16.029 0v-1h-8.014v1h8.014Zm-16.029 0v-1h-8.014v1h8.014Zm-16.029 0v-1h-8.014v1h8.014Zm-16.029 0v-1h-8.014v1h8.014Zm-16.028 0v-1h-8.015v1h8.015Zm-16.029 0v-1h-8.015v1h8.015Zm-16.029 0v-1h-8.015v1h8.015Zm-16.029 0v-1h-8.015v1h8.015Zm-16.029 0v-1h-8.015v1h8.015Zm-16.029 0v-1h-8.015v1h8.015Zm-16.029 0v-1h-8.014v1h8.014Zm-16.029 0v-1h-8.014v1h8.014Zm-16.029 0v-1H240.4v1h8.014Zm-16.029 0v-1h-8.014v1h8.014Zm-16.029 0v-1h-8.014v1h8.014Zm-16.029 0v-1h-8.014v1h8.014Zm-16.029 0v-1h-8.014v1h8.014Zm-16.029 0v-1h-8.014v1h8.014Zm-16.028 0v-1h-8.015v1h8.015Zm-16.029 0v-1h-8.015v1h8.015Zm-16.029 0v-1h-8.015v1h8.015Zm-16.029 0v-1h-8.015v1h8.015Zm-16.03 0v-1H80.11v1h8.015Zm-16.028 0v-1H64.08v1h8.015Zm-16.03 0v-1h-8.014v1h8.015Zm-16.028 0v-1h-8.015v1h8.015Z"/>
</svg>
