<svg width="102" height="18" viewBox="0 0 102 18" fill="none" xmlns="http://www.w3.org/2000/svg">
<path d="M97.6435 17.3133C97.4415 17.3133 97.2405 17.2513 97.0675 17.1278L93 14.2108L88.9325 17.1278C88.764 17.2491 88.5615 17.314 88.3539 17.3133C88.1463 17.3125 87.9442 17.2463 87.7765 17.1238C87.6087 17.0022 87.4835 16.8306 87.4188 16.6337C87.354 16.4367 87.3531 16.2244 87.416 16.0268L88.933 11.1308L84.902 8.29035C84.735 8.16706 84.6109 7.99436 84.5474 7.79669C84.4838 7.59902 84.4841 7.38638 84.548 7.18885C84.6125 6.99179 84.7372 6.81998 84.9046 6.69769C85.0721 6.5754 85.2737 6.50881 85.481 6.50735L90.4735 6.49985L92.063 1.72535C92.1286 1.52866 92.2544 1.35759 92.4226 1.23637C92.5908 1.11516 92.7929 1.04993 93.0003 1.04993C93.2076 1.04993 93.4097 1.11516 93.5779 1.23637C93.7461 1.35759 93.8719 1.52866 93.9375 1.72535L95.5 6.49985L100.518 6.50735C100.726 6.50852 100.928 6.57507 101.095 6.69754C101.263 6.82002 101.387 6.99219 101.452 7.1896C101.516 7.387 101.516 7.59961 101.453 7.79721C101.389 7.99482 101.265 8.16736 101.098 8.29035L97.0665 11.1308L98.5835 16.0268C98.6466 16.2243 98.6457 16.4367 98.5811 16.6336C98.5165 16.8306 98.3913 17.0021 98.2235 17.1238C98.0553 17.2472 97.8521 17.3136 97.6435 17.3133Z" fill="#FFD046"/>
<path d="M76.6435 17.3133C76.4415 17.3133 76.2405 17.2513 76.0675 17.1278L72 14.2108L67.9325 17.1278C67.764 17.2491 67.5615 17.314 67.3539 17.3133C67.1463 17.3125 66.9442 17.2463 66.7765 17.1238C66.6087 17.0022 66.4835 16.8306 66.4188 16.6337C66.354 16.4367 66.3531 16.2244 66.416 16.0268L67.933 11.1308L63.902 8.29035C63.735 8.16706 63.6109 7.99436 63.5474 7.79669C63.4838 7.59902 63.4841 7.38638 63.548 7.18885C63.6125 6.99179 63.7372 6.81998 63.9046 6.69769C64.0721 6.5754 64.2737 6.50881 64.481 6.50735L69.4735 6.49985L71.063 1.72535C71.1286 1.52866 71.2544 1.35759 71.4226 1.23637C71.5908 1.11516 71.7929 1.04993 72.0003 1.04993C72.2076 1.04993 72.4097 1.11516 72.5779 1.23637C72.7461 1.35759 72.8719 1.52866 72.9375 1.72535L74.5 6.49985L79.518 6.50735C79.7256 6.50852 79.9275 6.57507 80.0951 6.69754C80.2627 6.82002 80.3874 6.99219 80.4516 7.1896C80.5157 7.387 80.5161 7.59961 80.4525 7.79721C80.3889 7.99482 80.2647 8.16736 80.0975 8.29035L76.0665 11.1308L77.5835 16.0268C77.6466 16.2243 77.6457 16.4367 77.5811 16.6336C77.5165 16.8306 77.3913 17.0021 77.2235 17.1238C77.0553 17.2472 76.8521 17.3136 76.6435 17.3133Z" fill="#FFD046"/>
<path d="M55.6435 17.3133C55.4415 17.3133 55.2405 17.2513 55.0675 17.1278L51 14.2108L46.9325 17.1278C46.764 17.2491 46.5615 17.314 46.3539 17.3133C46.1463 17.3125 45.9442 17.2463 45.7765 17.1238C45.6087 17.0022 45.4835 16.8306 45.4188 16.6337C45.354 16.4367 45.3531 16.2244 45.416 16.0268L46.933 11.1308L42.902 8.29035C42.735 8.16706 42.6109 7.99436 42.5474 7.79669C42.4838 7.59902 42.4841 7.38638 42.548 7.18885C42.6125 6.99179 42.7372 6.81998 42.9046 6.69769C43.0721 6.5754 43.2737 6.50881 43.481 6.50735L48.4735 6.49985L50.063 1.72535C50.1286 1.52866 50.2544 1.35759 50.4226 1.23637C50.5908 1.11516 50.7929 1.04993 51.0003 1.04993C51.2076 1.04993 51.4097 1.11516 51.5779 1.23637C51.7461 1.35759 51.8719 1.52866 51.9375 1.72535L53.5 6.49985L58.518 6.50735C58.7256 6.50852 58.9275 6.57507 59.0951 6.69754C59.2627 6.82002 59.3874 6.99219 59.4516 7.1896C59.5157 7.387 59.5161 7.59961 59.4525 7.79721C59.3889 7.99482 59.2647 8.16736 59.0975 8.29035L55.0665 11.1308L56.5835 16.0268C56.6466 16.2243 56.6457 16.4367 56.5811 16.6336C56.5165 16.8306 56.3913 17.0021 56.2235 17.1238C56.0553 17.2472 55.8521 17.3136 55.6435 17.3133Z" fill="#FFD046"/>
<path d="M34.6435 17.3133C34.4415 17.3133 34.2405 17.2513 34.0675 17.1278L30 14.2108L25.9325 17.1278C25.764 17.2491 25.5615 17.314 25.3539 17.3133C25.1463 17.3125 24.9442 17.2463 24.7765 17.1238C24.6087 17.0022 24.4835 16.8306 24.4188 16.6337C24.354 16.4367 24.3531 16.2244 24.416 16.0268L25.933 11.1308L21.902 8.29035C21.735 8.16706 21.6109 7.99436 21.5474 7.79669C21.4838 7.59902 21.4841 7.38638 21.548 7.18885C21.6125 6.99179 21.7372 6.81998 21.9046 6.69769C22.0721 6.5754 22.2737 6.50881 22.481 6.50735L27.4735 6.49985L29.063 1.72535C29.1286 1.52866 29.2544 1.35759 29.4226 1.23637C29.5908 1.11516 29.7929 1.04993 30.0003 1.04993C30.2076 1.04993 30.4097 1.11516 30.5779 1.23637C30.7461 1.35759 30.8719 1.52866 30.9375 1.72535L32.5 6.49985L37.518 6.50735C37.7256 6.50852 37.9275 6.57507 38.0951 6.69754C38.2627 6.82002 38.3874 6.99219 38.4516 7.1896C38.5157 7.387 38.5161 7.59961 38.4525 7.79721C38.3889 7.99482 38.2647 8.16736 38.0975 8.29035L34.0665 11.1308L35.5835 16.0268C35.6466 16.2243 35.6457 16.4367 35.5811 16.6336C35.5165 16.8306 35.3913 17.0021 35.2235 17.1238C35.0553 17.2472 34.8521 17.3136 34.6435 17.3133Z" fill="#FFD046"/>
<path d="M13.6435 17.3133C13.4415 17.3133 13.2405 17.2513 13.0675 17.1278L9.00001 14.2108L4.93251 17.1278C4.76399 17.2491 4.56147 17.314 4.35386 17.3133C4.14626 17.3125 3.94419 17.2463 3.77651 17.1238C3.60867 17.0022 3.48349 16.8306 3.41877 16.6337C3.35404 16.4367 3.35308 16.2244 3.41601 16.0268L4.93301 11.1308L0.902011 8.29035C0.734952 8.16706 0.610884 7.99436 0.547356 7.79669C0.483829 7.59902 0.484058 7.38638 0.548011 7.18885C0.612468 6.99179 0.737224 6.81998 0.904646 6.69769C1.07207 6.5754 1.27369 6.50881 1.48101 6.50735L6.47351 6.49985L8.06301 1.72535C8.12861 1.52866 8.25442 1.35759 8.42263 1.23637C8.59084 1.11516 8.79292 1.04993 9.00026 1.04993C9.2076 1.04993 9.40968 1.11516 9.57789 1.23637C9.7461 1.35759 9.87191 1.52866 9.93751 1.72535L11.5 6.49985L16.518 6.50735C16.7256 6.50852 16.9275 6.57507 17.0951 6.69754C17.2627 6.82002 17.3874 6.99219 17.4516 7.1896C17.5157 7.387 17.5161 7.59961 17.4525 7.79721C17.3889 7.99482 17.2647 8.16736 17.0975 8.29035L13.0665 11.1308L14.5835 16.0268C14.6466 16.2243 14.6457 16.4367 14.5811 16.6336C14.5165 16.8306 14.3913 17.0021 14.2235 17.1238C14.0553 17.2472 13.8521 17.3136 13.6435 17.3133Z" fill="#FFD046"/>
</svg>
