<svg width="193" height="193" viewBox="0 0 193 193" fill="none" xmlns="http://www.w3.org/2000/svg">
<circle cx="96.5" cy="96.5" r="62.5" fill="white"/>
<circle cx="96.5" cy="96.5" r="58.5" fill="#FFD046"/>
<path fill-rule="evenodd" clip-rule="evenodd" d="M192.91 100.713L191.911 100.671C191.97 99.2878 192 97.8975 192 96.5C192 95.1025 191.97 93.7121 191.911 92.3294L192.91 92.2865C192.97 93.6835 193 95.0882 193 96.5C193 97.9118 192.97 99.3165 192.91 100.713ZM192.184 83.8962L191.193 84.0256C190.831 81.2511 190.35 78.5142 189.755 75.8201L190.732 75.6045C191.333 78.327 191.819 81.0927 192.184 83.8962ZM188.558 67.473L187.604 67.7735C186.766 65.1115 185.814 62.4998 184.754 59.944L185.678 59.561C186.749 62.1436 187.711 64.7829 188.558 67.473ZM182.114 51.9321L181.228 52.3946C179.939 49.9254 178.547 47.5195 177.055 45.1828L177.898 44.6447C179.405 47.0058 180.813 49.437 182.114 51.9321ZM173.063 37.7523L172.27 38.3616C170.576 36.1568 168.787 34.028 166.911 31.9813L167.648 31.3055C169.544 33.3736 171.351 35.5245 173.063 37.7523ZM161.694 25.352L161.019 26.0891C158.972 24.2126 156.843 22.4242 154.638 20.7299L155.248 19.937C157.475 21.6489 159.626 23.456 161.694 25.352ZM148.355 15.1021C145.994 13.5948 143.563 12.1874 141.068 10.8859L140.605 11.7725C143.075 13.0605 145.48 14.4533 147.817 15.945L148.355 15.1021ZM133.439 7.32247C130.856 6.25148 128.217 5.28941 125.527 4.442L125.226 5.39579C127.889 6.23435 130.5 7.18637 133.056 8.2462L133.439 7.32247ZM117.395 2.26836L117.18 3.24485C114.486 2.65012 111.749 2.16915 108.974 1.80724L109.104 0.815645C111.907 1.18134 114.673 1.66736 117.395 2.26836ZM100.713 0.0903347L100.671 1.08941C99.2878 1.03001 97.8975 1 96.5 1C95.1025 1 93.7121 1.03001 92.3294 1.08941L92.2865 0.0903349C93.6835 0.0303168 95.0882 0 96.5 0C97.9118 0 99.3165 0.0303167 100.713 0.0903347ZM83.8962 0.815646L84.0256 1.80725C81.2511 2.16915 78.5142 2.65012 75.8201 3.24485L75.6045 2.26836C78.327 1.66736 81.0927 1.18134 83.8962 0.815646ZM67.473 4.442L67.7735 5.39579C65.1115 6.23435 62.4998 7.18638 59.944 8.2462L59.561 7.32248C62.1436 6.25148 64.7829 5.28941 67.473 4.442ZM51.9321 10.8859L52.3946 11.7725C49.9254 13.0605 47.5195 14.4533 45.1828 15.945L44.6447 15.1022C47.0058 13.5948 49.437 12.1874 51.9321 10.8859ZM37.7523 19.937L38.3616 20.7299C36.1568 22.4242 34.028 24.2126 31.9813 26.0891L31.3055 25.352C33.3736 23.456 35.5245 21.6489 37.7523 19.937ZM25.352 31.3055L26.0891 31.9813C24.2126 34.0281 22.4242 36.1568 20.7299 38.3617L19.937 37.7523C21.6489 35.5245 23.456 33.3736 25.352 31.3055ZM15.1021 44.6447L15.945 45.1828C14.4533 47.5195 13.0605 49.9254 11.7725 52.3946L10.8859 51.9321C12.1874 49.437 13.5948 47.0059 15.1021 44.6447ZM7.32247 59.561L8.2462 59.944C7.18637 62.4998 6.23435 65.1115 5.39579 67.7735L4.442 67.473C5.28941 64.7829 6.25148 62.1437 7.32247 59.561ZM2.26835 75.6045L3.24485 75.8201C2.65012 78.5142 2.16915 81.2511 1.80724 84.0256L0.815645 83.8962C1.18134 81.0927 1.66736 78.327 2.26835 75.6045ZM0.0903347 92.2865C0.0303167 93.6835 0 95.0882 0 96.5C0 97.9118 0.0303168 99.3165 0.0903349 100.713L1.08941 100.671C1.03001 99.2879 1 97.8975 1 96.5C1 95.1025 1.03001 93.7122 1.08941 92.3294L0.0903347 92.2865ZM0.815646 109.104L1.80725 108.974C2.16915 111.749 2.65012 114.486 3.24485 117.18L2.26836 117.395C1.66736 114.673 1.18134 111.907 0.815646 109.104ZM4.442 125.527L5.39579 125.227C6.23435 127.889 7.18638 130.5 8.2462 133.056L7.32248 133.439C6.25148 130.856 5.28941 128.217 4.442 125.527ZM10.8859 141.068L11.7725 140.605C13.0605 143.075 14.4533 145.481 15.945 147.817L15.1022 148.355C13.5948 145.994 12.1874 143.563 10.8859 141.068ZM19.937 155.248L20.7299 154.638C22.4242 156.843 24.2126 158.972 26.0891 161.019L25.352 161.694C23.456 159.626 21.6489 157.475 19.937 155.248ZM31.3055 167.648L31.9813 166.911C34.0281 168.787 36.1568 170.576 38.3617 172.27L37.7523 173.063C35.5245 171.351 33.3736 169.544 31.3055 167.648ZM44.6447 177.898L45.1828 177.055C47.5195 178.547 49.9254 179.939 52.3946 181.228L51.9321 182.114C49.437 180.813 47.0059 179.405 44.6447 177.898ZM59.561 185.678L59.944 184.754C62.4998 185.814 65.1115 186.766 67.7735 187.604L67.473 188.558C64.7829 187.711 62.1437 186.749 59.561 185.678ZM75.6045 190.732L75.8201 189.755C78.5142 190.35 81.2511 190.831 84.0256 191.193L83.8962 192.184C81.0927 191.819 78.327 191.333 75.6045 190.732ZM92.2865 192.91L92.3294 191.911C93.7122 191.97 95.1025 192 96.5 192C97.8975 192 99.2879 191.97 100.671 191.911L100.713 192.91C99.3165 192.97 97.9118 193 96.5 193C95.0882 193 93.6835 192.97 92.2865 192.91ZM109.104 192.184L108.974 191.193C111.749 190.831 114.486 190.35 117.18 189.755L117.395 190.732C114.673 191.333 111.907 191.819 109.104 192.184ZM125.527 188.558L125.227 187.604C127.889 186.766 130.5 185.814 133.056 184.754L133.439 185.678C130.856 186.749 128.217 187.711 125.527 188.558ZM141.068 182.114L140.605 181.228C143.075 179.939 145.481 178.547 147.817 177.055L148.355 177.898C145.994 179.405 143.563 180.813 141.068 182.114ZM155.248 173.063L154.638 172.27C156.843 170.576 158.972 168.787 161.019 166.911L161.694 167.648C159.626 169.544 157.475 171.351 155.248 173.063ZM167.648 161.694L166.911 161.019C168.787 158.972 170.576 156.843 172.27 154.638L173.063 155.248C171.351 157.475 169.544 159.626 167.648 161.694ZM177.898 148.355L177.055 147.817C178.547 145.48 179.939 143.075 181.228 140.605L182.114 141.068C180.813 143.563 179.405 145.994 177.898 148.355ZM185.678 133.439L184.754 133.056C185.814 130.5 186.766 127.889 187.604 125.226L188.558 125.527C187.711 128.217 186.749 130.856 185.678 133.439ZM190.732 117.395L189.755 117.18C190.35 114.486 190.831 111.749 191.193 108.974L192.184 109.104C191.819 111.907 191.333 114.673 190.732 117.395Z" fill="#FC5E38"/>
</svg>
