<svg xmlns="http://www.w3.org/2000/svg" width="563" height="291" fill="none" viewBox="0 0 563 291">
    <path fill="#fff" d="m16.097 290.619.194-.981c1.199.237 2.439.362 3.709.362h3.962v1H20c-1.336 0-2.64-.131-3.903-.381Zm522.941.381v-1H543c1.27 0 2.51-.125 3.709-.362l.194.981A20.07 20.07 0 0 1 543 291h-3.962Zm15.074-3.369-.556-.831a19.106 19.106 0 0 0 5.244-5.244l.831.556a20.106 20.106 0 0 1-5.519 5.519ZM563 23.921h-1V20c0-1.27-.125-2.51-.362-3.71l.981-.193c.25 1.262.381 2.567.381 3.903v3.922Zm-3.369-15.033-.831.556a19.108 19.108 0 0 0-5.244-5.244l.556-.831a20.108 20.108 0 0 1 5.519 5.519ZM23.962 0H20c-1.336 0-2.64.13-3.903.38l.194.982A19.098 19.098 0 0 1 20 1h3.962V0ZM8.888 3.369l.556.83A19.11 19.11 0 0 0 4.2 9.445l-.831-.556a20.11 20.11 0 0 1 5.519-5.52ZM0 267.078h1V271c0 1.27.125 2.51.362 3.709l-.981.194A20.09 20.09 0 0 1 0 271v-3.922Zm3.369 15.034.83-.556a19.108 19.108 0 0 0 5.245 5.244l-.556.831a20.108 20.108 0 0 1-5.52-5.519ZM0 259.234h1v-7.843H0v7.843Zm0-15.687h1v-7.844H0v7.844Zm0-15.688h1v-7.843H0v7.843Zm0-15.687h1v-7.844H0v7.844Zm0-15.688h1v-7.843H0v7.843Zm0-15.687h1v-7.844H0v7.844Zm0-15.688h1v-7.843H0v7.843Zm0-15.687h1v-7.844H0v7.844Zm0-15.688h1v-7.843H0v7.843Zm0-15.687h1v-7.844H0v7.844Zm0-15.688h1v-7.843H0v7.843Zm0-15.687h1v-7.844H0v7.844Zm0-15.688h1v-7.843H0v7.843Zm0-15.687h1v-7.844H0v7.844Zm0-15.688h1v-7.843H0v7.843Zm0-15.687h1V20c0-1.27.125-2.51.362-3.71l-.981-.193A20.097 20.097 0 0 0 0 20v3.922ZM31.886 0v1h7.925V0h-7.925Zm15.849 0v1h7.924V0h-7.924Zm15.848 0v1h7.925V0h-7.925Zm15.849 0v1h7.924V0h-7.924ZM95.28 0v1h7.925V0H95.28Zm15.849 0v1h7.924V0h-7.924Zm15.848 0v1h7.925V0h-7.925Zm15.849 0v1h7.924V0h-7.924Zm15.848 0v1h7.924V0h-7.924Zm15.849 0v1h7.924V0h-7.924Zm15.848 0v1h7.924V0h-7.924Zm15.849 0v1h7.924V0h-7.924Zm15.848 0v1h7.924V0h-7.924Zm15.849 0v1h7.924V0h-7.924Zm15.848 0v1h7.924V0h-7.924Zm15.849 0v1h7.924V0h-7.924Zm15.848 0v1h7.924V0h-7.924Zm15.849 0v1h7.924V0h-7.924Zm15.848 0v1h7.924V0h-7.924Zm15.849 0v1h7.924V0h-7.924Zm15.848 0v1h7.924V0h-7.924Zm15.849 0v1h7.924V0h-7.924Zm15.848 0v1h7.924V0h-7.924Zm15.849 0v1h7.924V0h-7.924Zm15.848 0v1h7.924V0h-7.924Zm15.849 0v1h7.924V0h-7.924Zm15.848 0v1h7.924V0h-7.924Zm15.849 0v1h7.924V0h-7.924Zm15.848 0v1h7.925V0h-7.925Zm15.849 0v1h7.924V0h-7.924Zm15.848 0v1h7.925V0h-7.925Zm15.849 0v1h7.924V0h-7.924Zm15.848 0v1H543c1.27 0 2.51.125 3.709.362l.194-.981A20.09 20.09 0 0 0 543 0h-3.962ZM563 31.766h-1v7.843h1v-7.843Zm0 15.687h-1v7.844h1v-7.844Zm0 15.688h-1v7.843h1v-7.843Zm0 15.687h-1v7.844h1v-7.844Zm0 15.688h-1v7.843h1v-7.843Zm0 15.687h-1v7.844h1v-7.844Zm0 15.688h-1v7.843h1v-7.843Zm0 15.687h-1v7.844h1v-7.844Zm0 15.688h-1v7.843h1v-7.843Zm0 15.687h-1v7.844h1v-7.844Zm0 15.688h-1v7.843h1v-7.843Zm0 15.687h-1v7.844h1v-7.844Zm0 15.688h-1v7.843h1v-7.843Zm0 15.687h-1v7.844h1v-7.844Zm0 15.688h-1v7.843h1v-7.843Zm0 15.687h-1V271c0 1.27-.125 2.51-.362 3.709l.981.194A20.07 20.07 0 0 0 563 271v-3.922ZM531.114 291v-1h-7.925v1h7.925Zm-15.849 0v-1h-7.924v1h7.924Zm-15.848 0v-1h-7.925v1h7.925Zm-15.849 0v-1h-7.924v1h7.924Zm-15.848 0v-1h-7.925v1h7.925Zm-15.849 0v-1h-7.924v1h7.924Zm-15.848 0v-1h-7.925v1h7.925Zm-15.849 0v-1h-7.924v1h7.924Zm-15.848 0v-1h-7.924v1h7.924Zm-15.849 0v-1h-7.924v1h7.924Zm-15.848 0v-1h-7.924v1h7.924Zm-15.849 0v-1h-7.924v1h7.924Zm-15.848 0v-1h-7.924v1h7.924Zm-15.849 0v-1h-7.924v1h7.924Zm-15.848 0v-1h-7.924v1h7.924Zm-15.849 0v-1h-7.924v1h7.924Zm-15.848 0v-1h-7.924v1h7.924Zm-15.849 0v-1h-7.924v1h7.924Zm-15.848 0v-1h-7.924v1h7.924Zm-15.849 0v-1h-7.924v1h7.924Zm-15.848 0v-1h-7.924v1h7.924Zm-15.849 0v-1h-7.924v1h7.924Zm-15.848 0v-1h-7.924v1h7.924Zm-15.849 0v-1h-7.924v1h7.924Zm-15.848 0v-1h-7.924v1h7.924Zm-15.849 0v-1h-7.924v1h7.924Zm-15.848 0v-1h-7.924v1h7.924Zm-15.849 0v-1H95.28v1h7.924Zm-15.848 0v-1h-7.924v1h7.924Zm-15.849 0v-1h-7.924v1h7.924Zm-15.848 0v-1h-7.925v1h7.925Zm-15.849 0v-1h-7.924v1h7.924Z"/>
</svg>
