<svg xmlns="http://www.w3.org/2000/svg" width="696" height="402" fill="none" viewBox="0 0 696 402">
    <circle cx="640.498" cy="202.5" r="53.5" fill="#FAF6F2" stroke="#fff" stroke-width="4"/>
    <path fill="#99AAB5" d="M639.998 223c11.046 0 20-8.954 20-20s-8.954-20-20-20-20 8.954-20 20 8.954 20 20 20Z"/>
    <path fill="#E1E8ED" d="M639.998 218.555c8.591 0 15.556-6.964 15.556-15.555s-6.965-15.556-15.556-15.556-15.555 6.965-15.555 15.556 6.964 15.555 15.555 15.555Z"/>
    <path fill="#66757F" d="M641.109 203a1.114 1.114 0 0 1-1.111 1.111 1.114 1.114 0 0 1-1.111-1.111v-12.222a1.114 1.114 0 0 1 1.111-1.111 1.114 1.114 0 0 1 1.111 1.111V203Z"/>
    <path fill="#66757F" d="M649.622 197.444a1.114 1.114 0 0 1-.407 1.518l-8.661 5a1.115 1.115 0 0 1-1.512-.41 1.112 1.112 0 0 1 .401-1.514l8.661-5a1.109 1.109 0 0 1 1.518.406Z"/>
    <circle cx="85.5" cy="39.5" r="37.5" fill="#FAF6F2" stroke="#fff" stroke-width="4"/>
    <path fill="#55ACEE" d="M94.998 40.729v-1.963c1-1.03 2.914-2.89 3.391-5.273.142.079.055.13.213.13.758 0 1.256-.983 1.256-2.197 0-1.194-.656-2.161-1.399-2.191.143-.516.212-1.206.212-2.092 0-2.956-2.549-6.505-8.253-6.505-5.068 0-8.244 3.549-8.244 6.505 0 .858.051 1.562.142 2.107-.697.105-1.247 1.033-1.247 2.175 0 1.214.614 2.197 1.373 2.197.157 0-.069-.051.072-.13.477 2.384 2.484 4.243 3.484 5.274v1.847c-4 .492-7 2.628-7 4.765v.81c0 .812.823.812 1.634.812h18.73c.813 0 1.636 0 1.636-.812v-.81c0-2.001-3-3.997-6-4.65Z"/>
    <path fill="#269" d="M82.998 48.729v-1.963c1-1.03 2.914-2.89 3.391-5.273.142.079.055.13.213.13.758 0 1.256-.983 1.256-2.197 0-1.194-.656-2.161-1.399-2.191.143-.516.212-1.206.212-2.092 0-2.956-2.549-6.505-8.253-6.505-5.069 0-8.244 3.549-8.244 6.505 0 .858.051 1.562.142 2.107-.697.105-1.247 1.033-1.247 2.175 0 1.214.614 2.197 1.373 2.197.157 0-.069-.051.072-.13.477 2.384 2.484 4.243 3.484 5.274v1.847c-4 .492-7 2.628-7 4.765v.81c0 .812.823.812 1.634.812h18.73c.813 0 1.636 0 1.636-.812v-.811c0-2-3-3.996-6-4.648Z"/>
    <circle cx="77" cy="325" r="75" fill="#FAF6F2" stroke="#fff" stroke-width="4"/>
    <path fill="#FC5E38" d="m60.992 353-4.57-4.57 36.592-36.564 4.57 4.599L60.992 353Zm28.023.857c-1.886 0-3.609-.457-5.17-1.371a10.826 10.826 0 0 1-3.714-3.714c-.933-1.561-1.4-3.294-1.4-5.199 0-1.866.476-3.58 1.429-5.141a10.906 10.906 0 0 1 3.77-3.742 9.737 9.737 0 0 1 5.085-1.4c1.885 0 3.609.467 5.17 1.4 1.562.914 2.8 2.152 3.714 3.713.933 1.543 1.4 3.266 1.4 5.17 0 1.905-.467 3.638-1.4 5.199a10.508 10.508 0 0 1-3.714 3.714c-1.561.914-3.285 1.371-5.17 1.371Zm0-5.884c.78 0 1.504-.2 2.17-.6a4.52 4.52 0 0 0 1.629-1.6c.4-.667.6-1.4.6-2.2 0-.799-.2-1.533-.6-2.199a4.52 4.52 0 0 0-1.628-1.6c-.667-.4-1.39-.6-2.171-.6-.8 0-1.533.2-2.2.6a4.84 4.84 0 0 0-1.628 1.6c-.4.666-.6 1.4-.6 2.199 0 .8.2 1.533.6 2.2a4.84 4.84 0 0 0 1.628 1.6c.667.4 1.4.6 2.2.6ZM64.99 331.576c-1.885 0-3.608-.457-5.17-1.371a10.746 10.746 0 0 1-3.742-3.714c-.914-1.561-1.371-3.294-1.371-5.198 0-1.867.476-3.581 1.428-5.142a10.905 10.905 0 0 1 3.77-3.742 9.737 9.737 0 0 1 5.085-1.4c1.886 0 3.6.467 5.142 1.4a10.44 10.44 0 0 1 3.742 3.713c.933 1.543 1.4 3.266 1.4 5.171 0 1.904-.467 3.637-1.4 5.198a10.746 10.746 0 0 1-3.742 3.714c-1.542.914-3.256 1.371-5.142 1.371Zm0-5.884c.8 0 1.533-.2 2.2-.6.666-.4 1.2-.933 1.6-1.6.4-.666.6-1.4.6-2.199 0-.8-.2-1.533-.6-2.2-.4-.667-.933-1.2-1.6-1.6-.667-.4-1.4-.6-2.2-.6-.8 0-1.533.2-2.2.6-.666.4-1.199.933-1.599 1.6-.4.667-.6 1.4-.6 2.2 0 .799.2 1.533.6 2.199.4.667.933 1.2 1.6 1.6.666.4 1.4.6 2.2.6Z"/>
    <path fill="#292F33" d="m115.006 299.212-38.178-8.181a1.336 1.336 0 0 0-.57 0l-38.18 8.181a1.363 1.363 0 0 0-.087 2.645l13.483 3.853c-.523 1.623-.837 3.497-.837 5.744 0 6.245 8.958 9.544 25.907 9.544 16.949 0 25.907-3.299 25.907-9.544 0-2.247-.314-4.121-.837-5.744l13.485-3.853a1.366 1.366 0 0 0 .989-1.359 1.364 1.364 0 0 0-1.082-1.286Z"/>
    <path fill="#66757F" d="M116.032 300.172a1.37 1.37 0 0 0-1.685-.938l-37.803 10.801-37.805-10.801a1.356 1.356 0 0 0-1.037.12 1.364 1.364 0 0 0 .29 2.503l38.178 10.908c.243.071.502.071.745 0l38.179-10.908a1.346 1.346 0 0 0 .82-.647 1.359 1.359 0 0 0 .118-1.038Z"/>
    <path fill="#FFCC4D" d="m76.43 299.187-32.725 2.727c-.071.006-1.25.156-1.25 1.358v16.622c-.815.507-1.363 2.018-1.363 6.558 0 6.777 1.222 12.272 2.727 12.272s2.727-5.495 2.727-12.272c0-4.54-.548-6.051-1.363-6.558v-15.367l31.476-2.624a1.361 1.361 0 0 0 .739-2.382 1.363 1.363 0 0 0-.969-.334Z"/>
</svg>
