<svg width="25" height="24" viewBox="0 0 25 24" fill="none" xmlns="http://www.w3.org/2000/svg">
<path fill-rule="evenodd" clip-rule="evenodd" d="M19.2694 6.70711C19.6599 6.31658 19.6599 5.68342 19.2694 5.29289C18.8789 4.90237 18.2457 4.90237 17.8552 5.29289L12.5732 10.5749L7.29118 5.29289C6.90066 4.90237 6.26749 4.90237 5.87697 5.29289C5.48644 5.68342 5.48644 6.31658 5.87697 6.70711L11.159 11.9891L5.87688 17.2712C5.48635 17.6617 5.48635 18.2949 5.87688 18.6854C6.2674 19.076 6.90057 19.076 7.29109 18.6854L12.5732 13.4033L17.8553 18.6854C18.2458 19.076 18.879 19.076 19.2695 18.6854C19.66 18.2949 19.66 17.6617 19.2695 17.2712L13.9874 11.9891L19.2694 6.70711Z" fill="white" fill-opacity="0.98"/>
</svg>
