<svg width="92" height="269" viewBox="0 0 92 269" fill="none" xmlns="http://www.w3.org/2000/svg">
<g clip-path="url(#clip0_1_12)">
<g clip-path="url(#clip1_1_12)">
<path d="M29.1098 256.043C29.1098 258.278 27.2963 260.087 25.0549 260.087C22.8135 260.087 21 258.278 21 256.043C21 253.808 22.8135 252 25.0549 252C27.2963 252 29.1098 253.808 29.1098 256.043Z" fill="#FFE391"/>
<path d="M-1.89378 45.0216V42.9698C-1.89378 42.9698 12.178 42.5727 16.9558 35.3916C18.5921 32.9097 18.952 29.8651 18.0357 26.2911C10.8035 27.7803 2.26229 26.0264 -2.41738 20.0366C-5.78805 15.6684 -5.13355 12.7893 -4.44633 11.4656C-3.3664 9.38077 -0.846581 8.25562 2.32774 8.42109C7.62919 8.71892 15.2541 12.7893 19.2466 23.2466C19.312 23.4452 19.4102 23.6437 19.4756 23.8423C20.621 23.4782 21.7009 23.048 22.6827 22.5186C26.4788 20.4999 28.835 17.4885 29.6531 13.8152C26.217 13.4843 22.7481 11.2671 19.2793 7.13047C13.9124 0.743591 11.7525 -4.7167 13.3561 -7.8605C14.1087 -9.34967 15.6795 -10.1439 17.643 -9.97843C22.0282 -9.58132 28.0823 -4.6836 31.0276 5.07873C31.7148 7.36212 32.0093 9.54624 31.9111 11.6311C40.0924 9.97644 45.0011 -5.21309 45.0338 -5.34546L46.9646 -4.7167C46.7683 -4.05485 41.6304 11.7634 32.3038 13.6497C32.1075 13.6828 31.8784 13.7159 31.6821 13.749C30.8639 18.2165 28.0823 21.9229 23.599 24.3056C22.4863 24.9012 21.3082 25.3645 20.032 25.7616C21.1119 29.9313 20.6537 33.5384 18.6575 36.5168C13.2906 44.5914 -1.27201 44.9885 -1.89378 44.9885V45.0216ZM1.64052 10.4397C-0.453881 10.4397 -2.02468 11.1678 -2.67918 12.3922C-3.46458 13.9145 -2.81008 16.1979 -0.813855 18.746C3.34222 24.0739 10.9671 25.6293 17.4467 24.3056C17.414 24.1732 17.3485 24.0739 17.3158 23.9415C13.9124 15.0065 7.26922 10.7376 2.19684 10.4397C2.00049 10.4397 1.83687 10.4397 1.67324 10.4397H1.64052ZM17.0867 -7.92669C16.3668 -7.92669 15.5159 -7.72813 15.1232 -6.90081C14.2069 -5.11381 15.2214 -0.811764 20.7846 5.80677C23.9262 9.54624 26.9697 11.5318 29.9149 11.7965C30.0458 9.91026 29.784 7.85851 29.1295 5.74058C26.217 -3.75701 20.5883 -7.62885 17.4794 -7.92669C17.3485 -7.92669 17.2176 -7.92669 17.0867 -7.92669Z" fill="#FFE8AF"/>
<path d="M39.4563 57.9028C40.2607 57.9028 40.9127 57.253 40.9127 56.4514C40.9127 55.6498 40.2607 55 39.4563 55C38.652 55 38 55.6498 38 56.4514C38 57.253 38.652 57.9028 39.4563 57.9028Z" fill="white"/>
</g>
</g>
<defs>
<clipPath id="clip0_1_12">
<rect width="92" height="269" fill="white"/>
</clipPath>
<clipPath id="clip1_1_12">
<rect width="92" height="269" rx="16" fill="white"/>
</clipPath>
</defs>
</svg>
