<svg xmlns="http://www.w3.org/2000/svg" width="581" height="517" fill="none" viewBox="0 0 581 517">
    <path fill="#FC5E38" d="M40.768 49.324v3.546h-7.6v4.718h7.283v3.546H33.17v5.763h7.599v3.546H29.052v-21.12h11.716ZM55.97 49.324v3.546h-7.093v17.574H44.76v-21.12h11.21ZM57.538 69.684V64.87c1.52 1.54 3.378 2.311 5.573 2.311 1.646 0 3.103-.485 4.37-1.456 1.287-.971 2.079-2.343 2.374-4.117h-9.467v-3.546h9.404c-.296-1.73-1.066-3.071-2.312-4.021-1.245-.971-2.649-1.457-4.21-1.457-2.26 0-4.17.792-5.732 2.375v-4.813c1.689-.865 3.525-1.298 5.51-1.298 3.314 0 5.942.929 7.884 2.786.992.971 1.762 2.196 2.311 3.673.57 1.457.855 2.987.855 4.592 0 3.356-1.045 6.047-3.135 8.074-1.963 1.963-4.59 2.944-7.884 2.944-1.984 0-3.831-.411-5.54-1.234ZM99.75 64.87v4.814c-1.561.823-3.303 1.234-5.224 1.234-3.082 0-5.657-.981-7.726-2.944-2.258-2.175-3.388-4.866-3.388-8.075 0-3.42 1.13-6.174 3.388-8.264 1.984-1.857 4.57-2.786 7.758-2.786 1.857 0 3.588.433 5.193 1.298v4.813c-1.373-1.583-3.072-2.375-5.098-2.375-2.069 0-3.758.728-5.066 2.185-1.288 1.435-1.932 3.166-1.932 5.193 0 2.216.718 3.979 2.153 5.288 1.436 1.287 3.103 1.931 5.003 1.931 1.984 0 3.63-.77 4.94-2.311ZM114.934 52.87h-4.75v17.574h-4.116V52.87h-4.75v-3.546h13.616v3.546ZM115.199 49.324h4.813l5.351 10.639 4.528-10.64h4.496l-9.784 21.12h-4.496l2.945-5.889-7.853-15.23ZM137.256 49.324h14.249v17.573h2.216v8.296h-3.8v-4.75h-12.982v4.75h-3.799v-8.296c.717.021 1.372-.232 1.963-.76.591-.549 1.055-1.245 1.393-2.09.507-1.287.76-3.134.76-5.54v-9.183Zm3.99 3.546v5.636c0 2.639-.243 4.602-.729 5.89a6.993 6.993 0 0 1-1.646 2.501h8.517V52.87h-6.142ZM156.442 49.324h4.116v14.185l11.652-14.66h2.85v21.595h-4.117v-14.25l-11.652 14.661h-2.849V49.324ZM193.052 49.324v21.12h-4.116v-8.17h-.76l-5.383 8.17h-4.939l6.269-8.55a5.189 5.189 0 0 1-2.312-.95c-1.583-1.14-2.374-2.839-2.374-5.097 0-2.048.696-3.684 2.09-4.908 1.224-1.077 3.029-1.615 5.414-1.615h6.111Zm-4.116 3.356h-1.267a7.39 7.39 0 0 0-.981.064c-.317.042-.739.158-1.267.348a2.32 2.32 0 0 0-1.266.981c-.317.465-.475 1.056-.475 1.774 0 2.132 1.351 3.198 4.053 3.198h1.203V52.68ZM76.169 58.065h5.17v3.545h-5.17z"/>
    <path fill="url(#paint0_linear_22_62)" d="M29 83.724h164.052v3.464H29z"/>
    <path fill="url(#paint1_linear_22_62)" fill-rule="evenodd" d="M186.339 36.006H29.032V32.5H186.34l-4.02-4.02 2.48-2.48 8.253 8.253-8.253 8.253-2.48-2.48 4.02-4.02Z" clip-rule="evenodd"/>
    <g clip-path="url(#clip0_22_62)">
        <path fill="#55ACEE" d="m149.362 170.832-.505-1.896c.7-1.253 2.07-3.544 1.917-5.969.158.04.087.111.239.071.733-.196.961-1.274.648-2.447-.308-1.153-1.191-1.919-1.917-1.756.006-.536-.105-1.22-.334-2.076-.762-2.856-4.139-5.629-9.65-4.159-4.897 1.306-7.051 5.554-6.29 8.41.222.829.452 1.496.681 1.999-.647.281-.939 1.32-.645 2.423.313 1.173 1.16 1.965 1.893 1.769.152-.04-.08-.031.036-.144 1.075 2.181 3.494 3.46 4.726 4.198l.476 1.785c-3.739 1.506-6.087 4.343-5.536 6.408l.209.782c.209.785 1.004.573 1.788.364l18.097-4.827c.786-.209 1.581-.422 1.372-1.206l-.209-.783c-.516-1.933-3.929-3.089-6.996-2.946Z"/>
        <path fill="#269" d="m139.829 181.655-.506-1.897c.701-1.253 2.071-3.543 1.918-5.969.158.04.087.112.239.071.733-.195.961-1.274.648-2.447-.308-1.153-1.191-1.919-1.917-1.756.005-.535-.106-1.22-.334-2.076-.762-2.856-4.139-5.628-9.651-4.158-4.897 1.306-7.051 5.553-6.289 8.409.221.829.452 1.496.68 2-.646.281-.938 1.319-.644 2.422.313 1.173 1.159 1.965 1.893 1.769.152-.04-.08-.031.036-.144 1.075 2.181 3.493 3.46 4.725 4.198l.476 1.785c-3.738 1.506-6.086 4.343-5.535 6.408l.209.783c.209.784 1.004.572 1.787.363l18.098-4.827c.785-.209 1.581-.421 1.371-1.206l-.209-.784c-.515-1.932-3.928-3.087-6.995-2.944Z"/>
    </g>
    <g clip-path="url(#clip1_22_62)">
        <path fill="#fff" d="M506.225 184.762a2.777 2.777 0 0 1-3.359 2.037l-43.168-10.574a2.774 2.774 0 0 1-2.037-3.359l6.278-25.631a2.778 2.778 0 0 1 3.359-2.037l43.168 10.574a2.774 2.774 0 0 1 2.037 3.359l-6.278 25.631Z"/>
        <path fill="#6D6E71" d="m510.466 155.772-43.168-10.574a2.777 2.777 0 0 0-3.359 2.037l48.564 11.896a2.776 2.776 0 0 0-2.037-3.359Z"/>
        <path fill="#3B88C3" d="m463.663 160.037 43.168 10.574-1.321 5.396-43.169-10.574 1.322-5.396Zm1.983-8.094 43.168 10.574-1.322 5.396-43.168-10.574 1.322-5.396Zm-3.965 16.188 43.168 10.574-1.322 5.396-43.168-10.574 1.322-5.396Z"/>
        <path fill="#fff" d="m501.051 159.185 2.698.661-5.948 24.282-2.698-.661 5.948-24.282Z"/>
        <path fill="#FFE8B6" d="m498.574 134.269-21.584-5.286a2.774 2.774 0 0 0-3.359 2.037l-11.235 45.866 26.98 6.609 11.235-45.867a2.779 2.779 0 0 0-2.037-3.359Z"/>
        <path fill="#808285" d="m498.574 134.269-21.584-5.286a2.774 2.774 0 0 0-3.359 2.037l26.98 6.608a2.779 2.779 0 0 0-2.037-3.359Z"/>
        <path fill="#55ACEE" d="m471.042 153.265 21.584 5.287-1.322 5.396-21.584-5.287 1.322-5.396Zm-1.983 8.094 21.584 5.287-1.321 5.396-21.585-5.287 1.322-5.396Zm-1.982 8.094 21.584 5.287-1.322 5.396-21.584-5.287 1.322-5.396Z"/>
        <path fill="#FFE8B6" d="m480.072 139.748 2.698.661-9.582 39.121-2.698-.661 9.582-39.121Zm8.094 1.982 2.698.661-9.582 39.121-2.698-.66 9.582-39.122Z"/>
        <path fill="#269" d="m475.171 171.436 5.396 1.322-1.983 8.094-5.396-1.322 1.983-8.094Z"/>
        <path fill="#A7A9AC" d="M482.825 151.862a8.334 8.334 0 1 0 3.965-16.19 8.334 8.334 0 0 0-3.965 16.19Z"/>
        <path fill="#E6E7E8" d="M483.486 149.163a5.556 5.556 0 1 0 2.644-10.792 5.556 5.556 0 0 0-2.644 10.792Z"/>
        <path fill="#FC5E38" d="m488.524 146.108-4.047-.992a1.387 1.387 0 0 1-1.018-1.679l1.652-6.745a1.39 1.39 0 0 1 2.698.661l-1.322 5.396 2.698.661a1.388 1.388 0 1 1-.661 2.698Z"/>
    </g>
    <g clip-path="url(#clip2_22_62)">
        <path fill="#AAB8C2" d="M544.152 317.583a5.995 5.995 0 0 1-3.292 3.202 5.995 5.995 0 0 1-4.592-.064l-35.82-15.424a5.998 5.998 0 0 1-3.138-7.883l11.679-27.123c1.31-3.044 11.723-5.262 14.767-3.952l28.415 12.235c4.262 1.836 6.033 6.374 4.216 10.594l-12.235 28.415Z"/>
        <path fill="#F5F8FA" d="M539.024 321.908a6.008 6.008 0 0 1-3.292 3.202 6.004 6.004 0 0 1-4.592-.064l-30.31-13.051a6.003 6.003 0 0 1-3.138-7.884l14.238-33.065c2.443-5.675 2.344-5.523 9.261-2.545l28.932 12.458a6.001 6.001 0 0 1 3.138 7.884l-14.237 33.065Z"/>
        <path fill="#fff" d="M535.675 322.099a4.498 4.498 0 0 1-5.913 2.353l-33.065-14.237a4.498 4.498 0 0 1-2.353-5.913l14.237-33.065a4.502 4.502 0 0 1 5.913-2.353l33.065 14.237a4.503 4.503 0 0 1 2.354 5.913l-14.238 33.065Z"/>
        <path fill="#AAB8C2" d="M535.082 323.477a6.003 6.003 0 0 1-7.884 3.138l-28.932-12.458a6.004 6.004 0 0 1-3.202-3.292 6.004 6.004 0 0 1 .064-4.592l13.051-30.31a6 6 0 0 1 7.884-3.137l28.932 12.457a6.003 6.003 0 0 1 3.138 7.884l-13.051 30.31Z"/>
        <path fill="#E1E8ED" d="M532.326 322.29a5.995 5.995 0 0 1-7.883 3.138l-26.177-11.271a6.005 6.005 0 0 1-3.202-3.292 6.004 6.004 0 0 1 .064-4.592l11.865-27.554a5.998 5.998 0 0 1 7.884-3.138l26.638 11.47c3.043 1.311 4.185 4.18 2.875 7.224l-12.064 28.015Z"/>
        <path fill="#AAB8C2" d="M516.063 272.826c-2.326-1.002-1.245-3.675.254-4.382 1.704-.803 3.669-.462 6.856.91l2.152.927 1.186-2.756-3.746-1.613c-5.468-2.354-11.514-.875-13.22 3.086l-15.794 36.682a6.003 6.003 0 0 0 3.137 7.884l2.756 1.186 17.797-41.331-1.378-.593Z"/>
        <path fill="#FC5E38" d="m532.404 276.596-13.644 31.687 9.07-5.893 1.952 10.639 13.644-31.687-11.022-4.746Z"/>
        <path fill="#FC5E38" d="M529.189 314.407a1.504 1.504 0 0 1-.883-1.107l-1.545-8.426-7.184 4.667a1.497 1.497 0 0 1-2.195-1.851l13.645-31.688a1.498 1.498 0 0 1 1.971-.784l11.021 4.746a1.496 1.496 0 0 1 .785 1.971l-13.645 31.687a1.498 1.498 0 0 1-1.97.785Zm-.765-13.395c.46.198.79.613.882 1.107l1.058 5.766 11.091-25.759-8.266-3.559-11.092 25.759 4.916-3.195c.421-.272.95-.317 1.411-.119Z"/>
        <path fill="#F5F8FA" d="m530.835 272.654 16.533 7.119-1.187 2.755-16.532-7.119 1.186-2.755Z"/>
    </g>
    <path fill="#292F33" d="m119.383 264.325-38.457 6.751c-.19.032-.37.105-.529.214l-32.314 21.916a1.364 1.364 0 0 0 .912 2.485l13.943-1.491c.124 1.701.537 3.555 1.38 5.638 2.345 5.788 11.887 5.483 27.596-.88 15.709-6.363 22.773-12.785 20.428-18.573-.843-2.083-1.837-3.701-2.932-5.009l11.052-8.634a1.36 1.36 0 0 0 .406-1.631 1.366 1.366 0 0 0-1.485-.786Z"/>
    <path fill="#66757F" d="M120.694 264.83a1.368 1.368 0 0 0-1.914-.237l-30.982 24.204-39.095 4.181a1.378 1.378 0 0 0-.916.501 1.364 1.364 0 0 0 1.208 2.212l39.481-4.224c.252-.026.492-.123.69-.279l31.291-24.444a1.363 1.363 0 0 0 .517-.908 1.36 1.36 0 0 0-.28-1.006Z"/>
    <path fill="#FFCC4D" d="m83.619 278.785-29.307 14.814c-.064.031-1.1.613-.648 1.727l6.24 15.406c-.565.776-.506 2.382 1.199 6.591 2.544 6.281 5.74 10.915 7.134 10.35 1.396-.565.465-6.117-2.08-12.398-1.704-4.208-2.78-5.403-3.725-5.567l-5.77-14.243 28.189-14.248a1.364 1.364 0 0 0-1.232-2.432Z"/>
    <defs>
        <clipPath id="clip0_22_62">
            <path fill="#fff" d="M116 158.277 150.784 149l9.277 34.784-34.784 9.277z"/>
        </clipPath>
        <clipPath id="clip1_22_62">
            <path fill="#fff" d="m468.896 127 48.564 11.896-11.895 48.564L457 175.564z"/>
        </clipPath>
        <clipPath id="clip2_22_62">
            <path fill="#fff" d="m511.356 261 49.597 21.356-21.356 49.598L490 310.597z"/>
        </clipPath>
        <linearGradient id="paint0_linear_22_62" x1="29" x2="193.052" y1="87.187" y2="85.456" gradientUnits="userSpaceOnUse">
            <stop stop-color="#FC5E38"/>
            <stop offset="1" stop-color="#FC5E38" stop-opacity="0"/>
        </linearGradient>
        <linearGradient id="paint1_linear_22_62" x1="193.052" x2="29.032" y1="34.253" y2="34.253" gradientUnits="userSpaceOnUse">
            <stop stop-color="#FC5E38"/>
            <stop offset="1" stop-color="#FC5E38" stop-opacity="0"/>
        </linearGradient>
    </defs>
</svg>
