<svg width="248" height="276" viewBox="0 0 248 276" fill="none" xmlns="http://www.w3.org/2000/svg">
<g clip-path="url(#clip0_1_341)">
<g clip-path="url(#clip1_1_341)">
<path d="M51.2604 214.42C50.8804 214.42 50.5104 214.35 50.1504 214.2L45.0404 212.06C42.3704 211.15 23.1704 204.31 19.8904 194.1C18.8604 190.9 19.4404 187.65 21.5804 184.69C24.1204 181.17 27.1004 180.65 29.1504 180.84C36.6904 181.52 44.5304 193.5 48.8904 201.34C51.9004 193.69 57.7304 181.84 65.6804 179.48C68.2004 178.73 72.0804 178.6 76.3004 182.17C79.4604 184.85 79.8304 187.88 79.5904 189.94C79.0004 194.89 74.3004 200.33 65.2004 206.58C58.8904 210.92 52.8204 213.99 52.5604 214.12C52.1604 214.32 51.7104 214.43 51.2704 214.43L51.2604 214.42ZM68.6004 184.76C68.0904 184.76 67.6604 184.85 67.3004 184.96C61.4604 186.69 55.5404 199.05 52.7004 207.56C61.9204 202.51 73.2804 194.37 73.8904 189.26C73.9804 188.53 73.8904 187.63 72.5904 186.53C70.9504 185.14 69.6304 184.76 68.6004 184.76ZM28.4004 186.53C27.9504 186.53 27.1804 186.7 26.2104 188.04C24.8104 189.98 25.0404 191.43 25.3304 192.35C27.0004 197.57 37.4104 203.07 44.8304 205.9C40.1104 197.1 33.0404 186.94 28.6204 186.54C28.5604 186.54 28.4804 186.53 28.3904 186.53H28.4004Z" fill="white"/>
<path d="M122.03 219.58H28.6603C26.1203 219.58 24.0703 221.64 24.0703 224.17V290.11C24.0703 292.65 26.1303 294.7 28.6603 294.7H122.03C124.57 294.7 126.62 292.64 126.62 290.11V224.17C126.62 221.63 124.56 219.58 122.03 219.58ZM104.71 234.76H91.4603V230.9H104.71V234.76Z" fill="#EFA106"/>
<path d="M91.4695 224.17V290.11C91.4695 292.65 89.8695 294.7 87.8795 294.7H14.8595C12.8795 294.7 11.2695 292.64 11.2695 290.11V224.17C11.2695 221.63 12.8795 219.58 14.8595 219.58H87.8795C89.8695 219.58 91.4695 221.64 91.4695 224.17Z" fill="#F9B61E"/>
<path d="M131.893 211.25V227.9C131.893 229.55 130.553 230.89 128.903 230.89H21.8025C20.1525 230.89 18.8125 229.55 18.8125 227.9V211.25C18.8125 209.6 20.1525 208.26 21.8025 208.26H128.913C130.563 208.26 131.903 209.6 131.903 211.25H131.893Z" fill="#FCAA1A"/>
<path d="M98.09 211.25V227.9C98.09 229.55 97 230.89 95.66 230.89H8.44C7.09 230.89 6 229.55 6 227.9V211.25C6 209.6 7.09 208.26 8.44 208.26H95.66C97 208.26 98.09 209.6 98.09 211.25Z" fill="#F9BF30"/>
<path d="M55.4997 207.879H41.9297V230.899H55.4997V207.879Z" fill="white"/>
<path d="M55.4997 234.769H41.9297V294.709H55.4997V234.769Z" fill="white"/>
<path d="M114.171 208.26H104.711V230.9H114.171V208.26Z" fill="#FFEECF"/>
<path d="M114.171 234.769H104.711V294.709H114.171V234.769Z" fill="#FFEECF"/>
<path d="M55.4997 230.9H41.9297V234.76H55.4997V230.9Z" fill="#FFEECF"/>
<path d="M41.9295 230.9H11.2695V234.76H41.9295V230.9Z" fill="#EFA106"/>
<path d="M114.171 230.9H104.711V234.76H114.171V230.9Z" fill="#F9D39B"/>
<path d="M104.719 230.9H91.4688V234.76H104.719V230.9Z" fill="#D88A00"/>
<path d="M91.4717 230.9H55.5117V234.76H91.4717V230.9Z" fill="#EFA106"/>
<path d="M126.63 230.9H114.18V234.76H126.63V230.9Z" fill="#D88A00"/>
<path d="M14.7506 281.29C14.2806 281.29 13.8906 280.91 13.8906 280.43V243.6C13.8906 243.13 14.2706 242.74 14.7506 242.74C15.2306 242.74 15.6106 243.12 15.6106 243.6V280.43C15.6106 280.9 15.2306 281.29 14.7506 281.29Z" fill="#FFDD92"/>
<path d="M187.781 154.79C187.121 154.79 186.471 154.66 185.851 154.4L176.921 150.66C172.261 149.08 138.711 137.12 132.991 119.3C131.191 113.71 132.211 108.03 135.931 102.87C140.361 96.7296 145.571 95.8196 149.161 96.1396C162.331 97.3196 176.031 118.26 183.631 131.94C188.881 118.58 199.071 97.8696 212.951 93.7596C217.341 92.4596 224.131 92.2196 231.491 98.4596C237.011 103.14 237.661 108.43 237.231 112.04C236.201 120.68 227.981 130.19 212.101 141.1C201.081 148.67 190.471 154.04 190.031 154.26C189.321 154.62 188.551 154.79 187.781 154.79ZM218.071 102.99C217.191 102.99 216.431 103.15 215.801 103.34C205.611 106.36 195.261 127.95 190.301 142.81C206.401 133.99 226.251 119.78 227.311 110.85C227.461 109.57 227.311 108.01 225.041 106.08C222.171 103.65 219.861 102.99 218.081 102.99H218.071ZM147.861 106.07C147.081 106.07 145.731 106.37 144.041 108.71C141.591 112.11 141.991 114.63 142.511 116.23C145.431 125.34 163.601 134.96 176.571 139.9C168.331 124.52 155.991 106.78 148.261 106.09C148.151 106.08 148.011 106.07 147.861 106.07Z" fill="white"/>
<path d="M311.399 163.789H148.309C143.879 163.789 140.289 167.379 140.289 171.809V286.979C140.289 291.409 143.879 294.999 148.309 294.999H311.399C315.829 294.999 319.419 291.409 319.419 286.979V171.809C319.419 167.379 315.829 163.789 311.399 163.789ZM281.149 190.309H258.009V183.559H281.149V190.309Z" fill="#C43522"/>
<path d="M258.01 171.809V286.979C258.01 291.409 255.21 294.999 251.74 294.999H124.2C120.74 294.999 117.93 291.409 117.93 286.979V171.809C117.93 167.379 120.74 163.789 124.2 163.789H251.74C255.21 163.789 258.01 167.379 258.01 171.809Z" fill="#D84427"/>
<path d="M328.62 149.24V178.33C328.62 181.22 326.28 183.56 323.4 183.56H136.32C133.43 183.56 131.09 181.22 131.09 178.33V149.24C131.09 146.36 133.43 144.02 136.32 144.02H323.4C326.28 144.02 328.62 146.36 328.62 149.24Z" fill="#D84427"/>
<path d="M269.579 149.24V178.33C269.579 181.22 267.669 183.56 265.329 183.56H112.979C110.629 183.56 108.719 181.22 108.719 178.33V149.24C108.719 146.36 110.629 144.02 112.979 144.02H265.319C267.669 144.02 269.569 146.36 269.569 149.24H269.579Z" fill="#ED4832"/>
<path d="M195.198 143.359H171.488V183.569H195.198V143.359Z" fill="#F9BF30"/>
<path d="M195.198 190.309H171.488V294.999H195.198V190.309Z" fill="#F9BF30"/>
<path d="M195.198 183.559H171.488V190.309H195.198V183.559Z" fill="#FFA63B"/>
<path d="M171.49 183.561H117.93V190.311H171.49V183.561Z" fill="#C43522"/>
<path d="M258.009 183.561H195.199V190.311H258.009V183.561Z" fill="#C43522"/>
<path d="M124.012 271.58C123.182 271.58 122.512 270.91 122.512 270.08V205.75C122.512 204.92 123.182 204.25 124.012 204.25C124.842 204.25 125.512 204.92 125.512 205.75V270.08C125.512 270.91 124.842 271.58 124.012 271.58Z" fill="#FF7166"/>
<path d="M60.1098 151.043C60.1098 153.278 58.2963 155.087 56.0549 155.087C53.8135 155.087 52 153.278 52 151.043C52 148.808 53.8135 147 56.0549 147C58.2963 147 60.1098 148.808 60.1098 151.043Z" fill="#76B56B"/>
<path d="M248.913 131.451C248.913 132.249 248.257 132.903 247.456 132.903C246.656 132.903 246 132.249 246 131.451C246 130.654 246.656 130 247.456 130C248.257 130 248.913 130.654 248.913 131.451Z" fill="white"/>
<path d="M110.913 102.451C110.913 103.249 110.257 103.903 109.456 103.903C108.656 103.903 108 103.249 108 102.451C108 101.654 108.656 101 109.456 101C110.257 101 110.913 101.654 110.913 102.451Z" fill="white"/>
</g>
<g clip-path="url(#clip2_1_341)">
<path d="M191.106 61.0001V58.9483C191.106 58.9483 205.178 58.5512 209.956 51.3701C211.592 48.8882 211.952 45.8436 211.036 42.2696C203.804 43.7588 195.262 42.0049 190.583 36.0151C187.212 31.6469 187.866 28.7678 188.554 27.4441C189.634 25.3593 192.153 24.2341 195.328 24.3996C200.629 24.6974 208.254 28.7678 212.247 39.2251C212.312 39.4237 212.41 39.6222 212.476 39.8208C213.621 39.4568 214.701 39.0266 215.683 38.4971C219.479 36.4784 221.835 33.467 222.653 29.7937C219.217 29.4628 215.748 27.2456 212.279 23.109C206.912 16.7221 204.753 11.2618 206.356 8.11801C207.109 6.62884 208.68 5.83462 210.643 6.00008C215.028 6.3972 221.082 11.2949 224.028 21.0572C224.715 23.3406 225.009 25.5248 224.911 27.6096C233.092 25.955 238.001 10.7654 238.034 10.6331L239.965 11.2618C239.768 11.9237 234.63 27.742 225.304 29.6282C225.107 29.6613 224.878 29.6944 224.682 29.7275C223.864 34.195 221.082 37.9014 216.599 40.2841C215.486 40.8797 214.308 41.343 213.032 41.7402C214.112 45.9098 213.654 49.5169 211.658 52.4953C206.291 60.5699 191.728 60.967 191.106 60.967V61.0001ZM194.641 26.4183C192.546 26.4183 190.975 27.1463 190.321 28.3707C189.535 29.893 190.19 32.1764 192.186 34.7245C196.342 40.0524 203.967 41.6078 210.447 40.2841C210.414 40.1517 210.349 40.0524 210.316 39.9201C206.912 30.985 200.269 26.7161 195.197 26.4183C195 26.4183 194.837 26.4183 194.673 26.4183H194.641ZM210.087 8.05183C209.367 8.05183 208.516 8.25039 208.123 9.0777C207.207 10.8647 208.221 15.1668 213.785 21.7853C216.926 25.5248 219.97 27.5103 222.915 27.7751C223.046 25.8888 222.784 23.837 222.13 21.7191C219.217 12.2215 213.588 8.34966 210.479 8.05183C210.349 8.05183 210.218 8.05183 210.087 8.05183Z" fill="#FFE29B"/>
</g>
<path d="M241.11 83.0433C241.11 85.2783 239.296 87.0866 237.055 87.0866C234.814 87.0866 233 85.2783 233 83.0433C233 80.8083 234.814 79 237.055 79C239.296 79 241.11 80.8083 241.11 83.0433Z" fill="#D84427"/>
<path d="M109.055 83.0866C111.294 83.0866 113.11 81.2764 113.11 79.0433C113.11 76.8103 111.294 75 109.055 75C106.815 75 105 76.8103 105 79.0433C105 81.2764 106.815 83.0866 109.055 83.0866Z" fill="#FF7A01"/>
<path d="M53.4563 69.9028C54.2607 69.9028 54.9127 69.253 54.9127 68.4514C54.9127 67.6498 54.2607 67 53.4563 67C52.652 67 52 67.6498 52 68.4514C52 69.253 52.652 69.9028 53.4563 69.9028Z" fill="white"/>
<g clip-path="url(#clip3_1_341)">
<path d="M69.4469 118.999V117.955C69.4469 117.955 62.411 117.753 60.0221 114.097C59.204 112.833 59.024 111.283 59.4821 109.464C63.0982 110.222 67.3689 109.329 69.7087 106.28C71.394 104.056 71.0668 102.59 70.7232 101.916C70.1832 100.855 68.9233 100.282 67.3361 100.366C64.6854 100.518 60.8729 102.59 58.8767 107.914C58.844 108.015 58.7949 108.116 58.7622 108.217C58.1895 108.032 57.6495 107.813 57.1587 107.543C55.2606 106.516 54.0825 104.982 53.6734 103.112C55.3915 102.944 57.1259 101.815 58.8604 99.7092C61.5438 96.4577 62.6237 93.678 61.822 92.0775C61.4456 91.3194 60.6602 90.915 59.6785 90.9993C57.4859 91.2014 54.4588 93.6948 52.9862 98.6647C52.6426 99.8272 52.4953 100.939 52.5444 102C48.4538 101.158 45.9994 93.4253 45.9831 93.3579L45.0177 93.678C45.1159 94.0149 47.6848 102.068 52.3481 103.028C52.4463 103.045 52.5608 103.062 52.659 103.079C53.068 105.353 54.4588 107.24 56.7005 108.453C57.2568 108.756 57.8459 108.992 58.484 109.194C57.9441 111.317 58.1731 113.153 59.1712 114.67C61.8547 118.78 69.136 118.982 69.4469 118.982V118.999ZM67.6797 101.394C68.7269 101.394 69.5123 101.765 69.8396 102.388C70.2323 103.163 69.905 104.325 68.9069 105.623C66.8289 108.335 63.0164 109.127 59.7767 108.453C59.793 108.386 59.8257 108.335 59.8421 108.268C61.5438 103.719 64.8654 101.546 67.4016 101.394C67.4998 101.394 67.5816 101.394 67.6634 101.394H67.6797ZM59.9566 92.0438C60.3166 92.0438 60.742 92.1449 60.9384 92.566C61.3965 93.4758 60.8893 95.6659 58.1077 99.0354C56.5369 100.939 55.0152 101.95 53.5425 102.085C53.4771 101.124 53.608 100.08 53.9352 99.0017C55.3915 94.1665 58.2059 92.1954 59.7603 92.0438C59.8257 92.0438 59.8912 92.0438 59.9566 92.0438Z" fill="#FFE29B"/>
</g>
</g>
<defs>
<clipPath id="clip0_1_341">
<rect width="248" height="276" fill="white"/>
</clipPath>
<clipPath id="clip1_1_341">
<rect width="322.62" height="202" fill="white" transform="translate(6 93)"/>
</clipPath>
<clipPath id="clip2_1_341">
<rect width="52" height="55" fill="white" transform="translate(188 6)"/>
</clipPath>
<clipPath id="clip3_1_341">
<rect width="26" height="28" fill="white" transform="matrix(-1 0 0 1 71 91)"/>
</clipPath>
</defs>
</svg>
