<svg fill="none" height="60" viewBox="0 0 128 60" width="128" xmlns="http://www.w3.org/2000/svg" xmlns:xlink="http://www.w3.org/1999/xlink"><linearGradient id="a" gradientUnits="userSpaceOnUse" x1="126.195" x2=".797224" y1="6.32099" y2="6.32101"><stop offset="0" stop-color="#ff7a01"/><stop offset="1" stop-color="#ff7a01" stop-opacity="0"/></linearGradient><linearGradient id="b" gradientUnits="userSpaceOnUse" x1="128" x2="0" y1="49.0667" y2="49.0667"><stop offset="0" stop-color="#ff7a00"/><stop offset="1" stop-color="#ff6b00"/></linearGradient><path d="m119.927 11.9429-1.286-1.2762 3.185-2.76547h-120.63069v-2.76543h120.63069l-3.185-3.16049 1.286-1.276263c.39-.386933 1.019-.386933 1.409 0l5.665 5.621943-5.665 5.62191c-.39.387-1.019.387-1.409 0z" fill="url(#a)"/><path clip-rule="evenodd" d="m5 40c-2.76142 0-5 2.2386-5 5v7c0 2.7614 2.23858 5 5 5h118c2.761 0 5-2.2386 5-5v-12zm64.6172 12.1562c-.4935 0-.931-.098-1.3125-.294-.378-.1994-.6755-.4759-.8925-.8294-.2135-.3535-.3202-.763-.3202-1.2285 0-.4341.1015-.8313.3045-1.1918.1494-.2654.3529-.489.6104-.6709-.1914-.1589-.3476-.3413-.4687-.5471-.1715-.301-.2572-.637-.2572-1.008 0-.4305.0997-.8032.2992-1.1183.1995-.315.4743-.5582.8243-.7297.3535-.1715.7577-.2573 1.2127-.2573s.8575.0858 1.2075.2573.6248.4147.8243.7297c.1995.3151.2992.6878.2992 1.1183 0 .371-.0822.7053-.2467 1.0028-.1154.2087-.2739.3941-.4754.5563.256.1769.46.3992.6119.6669.2065.3605.3097.7577.3097 1.1918 0 .4655-.1085.875-.3255 1.2285s-.5162.63-.8977.8294c-.3815.196-.8173.294-1.3073.294zm0-1.0447c.406 0 .735-.1103.987-.3307.252-.2241.378-.5495.378-.9765s-.126-.7525-.378-.9765c-.2485-.2275-.5775-.3413-.987-.3413s-.7402.1138-.9922.3413c-.2485.224-.3728.5495-.3728.9765s.126.7524.378.9765c.252.2204.581.3307.987.3307zm0-3.675c.3465 0 .6265-.0858.84-.2573.217-.175.3255-.4392.3255-.7927s-.1085-.6178-.3255-.7927c-.2135-.1786-.4935-.2678-.84-.2678s-.6282.0892-.8452.2678c-.217.1749-.3255.4392-.3255.7927s.1085.6177.3255.7927c.217.1715.4987.2573.8452.2573zm-62.6172 4.5623v-7.5601h4.83v1.0343h-3.73275v6.5258zm7.3968.1574c-.567 0-1.0587-.1277-1.4752-.3832s-.7385-.6072-.966-1.0552c-.224-.4516-.336-.9713-.336-1.5593 0-.5915.1155-1.1113.3465-1.5593.231-.4515.5547-.8015.9712-1.05.4165-.252.903-.3779 1.4595-.3779.567 0 1.0588.1277 1.4753.3832s.7385.6073.966 1.0553.3412.9642.3412 1.5487c0 .5915-.1155 1.113-.3465 1.5645-.2275.448-.5495.7997-.966 1.0552-.4165.2521-.9065.378-1.47.378zm0-1.0342c.5425 0 .9468-.182 1.2128-.546.2695-.3675.4042-.84.4042-1.4175 0-.5915-.1365-1.064-.4095-1.4175-.2695-.357-.672-.5355-1.2075-.5355-.3675 0-.6702.084-.9082.252-.238.1645-.4148.3937-.5303.6878-.1155.2905-.1732.6282-.1732 1.0132 0 .595.1365 1.071.4095 1.428s.6737.5355 1.2022.5355zm5.3829-3.8062v4.683h1.0973v-4.683h1.9372v-.987h-4.9717v.987zm6.4961 4.8404c-.567 0-1.0588-.1277-1.4753-.3832s-.7385-.6072-.966-1.0552c-.224-.4516-.336-.9713-.336-1.5593 0-.5915.1155-1.1113.3465-1.5593.231-.4515.5548-.8015.9713-1.05.4165-.252.903-.3779 1.4595-.3779.567 0 1.0587.1277 1.4752.3832s.7385.6073.966 1.0553.3413.9642.3413 1.5487c0 .5915-.1155 1.113-.3465 1.5645-.2275.448-.5495.7997-.966 1.0552-.4165.2521-.9065.378-1.47.378zm0-1.0342c.5425 0 .9467-.182 1.2127-.546.2695-.3675.4043-.84.4043-1.4175 0-.5915-.1365-1.064-.4095-1.4175-.2695-.357-.672-.5355-1.2075-.5355-.3675 0-.6703.084-.9083.252-.238.1645-.4147.3937-.5302.6878-.1155.2905-.1733.6282-.1733 1.0132 0 .595.1365 1.071.4095 1.428s.6738.5355 1.2023.5355zm4.0359-4.7932v5.67h2.7353c.1645 0 .329-.007.4935-.021.168-.0141.3185-.0403.4515-.0788.3395-.0945.602-.2695.7875-.525.1855-.259.2782-.5792.2782-.9608 0-.3184-.063-.5722-.189-.7612-.1225-.1925-.28-.3395-.4725-.441-.126-.07-.2537-.1155-.3832-.1365.063-.021.126-.0507.189-.0892.063-.0386.1225-.0823.1785-.1313.1225-.112.2187-.245.2887-.399.07-.1575.105-.35.105-.5775 0-.399-.1015-.7175-.3045-.9555-.203-.2415-.448-.4025-.735-.483-.126-.035-.2712-.0613-.4357-.0788-.1645-.021-.329-.0314-.4935-.0314zm2.667 4.8037h-1.554v-1.5225h1.4963c.0595 0 .1312.0018.2152.0052.084.0036.161.0175.231.042.161.0351.294.1138.399.2363.105.119.1575.2783.1575.4778 0 .147-.035.2852-.105.4147-.0665.1295-.1785.2188-.336.2678-.0735.0245-.1575.0437-.252.0577s-.1785.021-.252.021zm-.3255-2.4045h-1.2285v-1.5172h1.176c.035 0 .1173.0035.2468.0105.133.0035.2502.0227.3517.0577.147.049.2573.1365.3308.2625s.1102.2695.1102.4305c0 .147-.0332.2835-.0997.4095-.0665.1225-.168.21-.3045.2625-.077.0315-.168.0542-.273.0682-.105.0105-.2083.0158-.3098.0158zm8.3397-2.3992v5.67h-1.0552v-3.9428l-2.835 3.9428h-.8925v-5.67h1.0552v3.864l2.8403-3.864zm1.5669 0v5.67h1.0553v-3.423l1.7062 3.423h.4988l1.7062-3.423v3.423h1.0605v-5.67h-.924l-2.0895 4.1579-2.0947-4.1579zm9.8077 5.67v-5.67h1.0972v2.3152h2.7668v-2.3152h1.0972v5.67h-1.0972v-2.3206h-2.7668v2.3206zm7.0854-.0735c.2835.154.6353.2309 1.0553.2309.5285 0 .973-.105 1.3335-.315.2725-.1598.5088-.3815.7087-.665v.8226h.9713v-3.4913c0-.238-.0105-.4603-.0315-.6668s-.077-.4024-.168-.588c-.175-.3744-.4515-.6475-.8295-.819-.3745-.175-.8155-.2624-1.323-.2624-.6545 0-1.1795.1435-1.575.4305-.392.287-.658.6737-.798 1.1602l1.0237.315c.098-.3185.2713-.546.5198-.6825.2485-.14.5215-.21.819-.21.4725 0 .805.1085.9975.3255.171.1863.2648.4607.2812.823-.2149.0302-.4312.0603-.6487.0905-.35.049-.6843.1015-1.0028.1575s-.6037.1207-.8557.1942c-.2905.0946-.5355.2188-.735.3728-.1995.1505-.35.3343-.4515.5512-.1015.2171-.1523.4691-.1523.756 0 .3081.0718.5916.2153.8505.147.2556.3622.4621.6457.6196zm2.0528-.8295c-.224.1085-.4918.1627-.8033.1627-.2345 0-.427-.0367-.5775-.1102-.1505-.0736-.2625-.1715-.336-.2941-.0735-.1259-.1102-.2624-.1102-.4095 0-.1504.0332-.2782.0997-.3832.07-.105.1628-.1942.2783-.2677.119-.0735.2537-.1365.4042-.1891.1785-.056.3815-.1032.609-.1417.231-.042.4883-.084.7718-.126.182-.027.377-.0561.5851-.0874-.0026.0925-.0069.1986-.0129.3184-.007.21-.0402.399-.0997.567-.042.1855-.1313.364-.2678.5355s-.3167.3133-.5407.4253zm13.3832.7244c.3955.2241.8505.336 1.365.336s.9695-.1119 1.365-.336c.3955-.2275.7053-.539.9293-.9345.2275-.3954.3412-.8505.3412-1.3649v-2.6041c0-.5144-.1137-.9694-.3412-1.3649-.224-.3956-.5338-.7053-.9293-.9293-.3955-.2275-.8505-.3413-1.365-.3413s-.9695.1138-1.365.3413c-.3955.224-.707.5337-.9345.9293-.224.3955-.336.8505-.336 1.3649v2.6041c0 .5144.112.9695.336 1.3649.2275.3955.539.707.9345.9345zm2.1263-.9135c-.2275.1331-.4813.1996-.7613.1996s-.5355-.0665-.7665-.1996c-.2275-.1364-.4095-.3184-.546-.5459-.1365-.2311-.2047-.4883-.2047-.7718v-2.751c0-.28.0682-.5337.2047-.7612.1365-.231.3185-.413.546-.5461.231-.1365.4865-.2047.7665-.2047s.5338.0682.7613.2047c.231.1331.4147.3151.5512.5461.1365.2275.2048.4812.2048.7612v2.751c0 .2835-.0683.5407-.2048.7718-.1365.2275-.3202.4095-.5512.5459zm10.4296-4.5779v5.67h-1.0553v-3.9428l-2.835 3.9428h-.8925v-5.67h1.0553v3.864l2.8402-3.864zm3.7739 0v5.67h2.7352c.1645 0 .3291-.007.4936-.021.168-.0141.3185-.0403.4515-.0788.3395-.0945.602-.2695.7875-.525.1855-.259.2782-.5792.2782-.9608 0-.3184-.063-.5722-.189-.7612-.1225-.1925-.28-.3395-.4725-.441-.126-.07-.2537-.1155-.3832-.1365.063-.021.126-.0507.189-.0892.063-.0386.1225-.0823.1785-.1313.1225-.112.2187-.245.2887-.399.07-.1575.105-.35.105-.5775 0-.399-.1015-.7175-.3045-.9555-.203-.2415-.448-.4025-.735-.483-.126-.035-.2712-.0613-.4357-.0788-.1645-.021-.329-.0314-.4935-.0314zm2.667 4.8037h-1.554v-1.5225h1.4962c.0596 0 .1313.0018.2153.0052.084.0036.161.0175.231.042.161.0351.294.1138.399.2363.105.119.1575.2783.1575.4778 0 .147-.035.2852-.105.4147-.0665.1295-.1785.2188-.336.2678-.0735.0245-.1575.0437-.252.0577s-.1785.021-.252.021zm-.3255-2.4045h-1.2285v-1.5172h1.176c.035 0 .1173.0035.2468.0105.133.0035.2502.0227.3517.0577.147.049.2572.1365.3308.2625.0735.126.1102.2695.1102.4305 0 .147-.0332.2835-.0997.4095-.0665.1225-.1681.21-.3045.2625-.0771.0315-.168.0542-.2731.0682-.105.0105-.2082.0158-.3097.0158zm3.557 3.2708v-5.67h1.1025v1.9687h.7455c.161 0 .3342.0035.5197.0105s.343.0245.4725.0525c.3046.063.5686.168.7926.315s.396.343.515.588c.122.2415.183.539.183.8925 0 .4935-.127.8873-.383 1.1812-.255.2906-.602.4866-1.039.5881-.1403.0315-.3066.0524-.4991.063-.189.007-.364.0105-.525.0105zm1.1025-.882h.8452c.091 0 .1925-.0036.3045-.0105.112-.0071.2153-.0228.3098-.0473.1645-.049.3132-.1488.4458-.2992.133-.1505.2-.3518.2-.6038 0-.259-.067-.4655-.2-.6195-.1291-.154-.2936-.2537-.4931-.2993-.091-.0245-.1872-.0402-.2887-.0472-.098-.007-.1908-.0105-.2783-.0105h-.8452zm3.8533.882v-5.67h1.097v5.67zm2.665-5.67v5.67h6.72v-5.67h-1.055v4.6829h-1.774v-4.6829h-1.056v4.6829h-1.779v-4.6829zm10.808 5.8274c-.564 0-1.059-.1224-1.486-.3675-.423-.2485-.754-.5932-.992-1.0342-.235-.4445-.352-.959-.352-1.5435 0-.6195.116-1.1568.347-1.6118.234-.455.56-.8067.976-1.0552.417-.2485.901-.3727 1.454-.3727.578 0 1.07.1347 1.476.4042.406.266.708.6458.908 1.1392.203.4936.283 1.0798.241 1.7588h-.546-.551-3.127c.039.4756.174.8554.402 1.1393.277.3395.676.5092 1.197.5092.343 0 .639-.077.888-.231.252-.1575.448-.3815.588-.672l1.076.3412c-.221.5075-.555.9013-1.003 1.1813-.448.2765-.947.4147-1.496.4147zm1.097-4.5412c.185.2371.302.5713.351 1.0028h-3.075c.058-.3942.184-.7127.377-.9555.277-.3465.69-.5198 1.239-.5198.497 0 .867.1575 1.108.4725zm3.283 3.318v1.0658h1.098v-1.0658zm0-6.4943v5.67h1.098v-5.67z" fill="url(#b)" fill-rule="evenodd"/><g fill="#ff7a01"><path d="m1.46875 31.0014v-15.12h9.86995v2.667h-7.01395v3.234h5.75395v2.667h-5.75395v3.885h7.01395v2.667z"/><path d="m14.0655 31.0014v-15.12h9.87v2.667h-7.014v12.453z"/><path d="m31.8064 31.3164c-1.134 0-2.149-.1715-3.045-.5145-.889-.35-1.645-.8785-2.268-1.5855-.616-.707-1.085-1.596-1.407-2.667l2.793-.693c.266.805.7245 1.47 1.3755 1.995s1.4385.784 2.3625.777c.651-.014 1.2705-.1435 1.8585-.3885.595-.245 1.0745-.6195 1.4385-1.1235.266-.336.469-.7035.609-1.1025.147-.406.252-.8225.315-1.2495h-5.292v-2.667h5.313c-.126-.77-.371-1.4455-.735-2.0265s-.84-1.0325-1.428-1.3545-1.281-.476-2.079-.462c-.945.007-1.75.273-2.415.798-.658.525-1.113 1.225-1.365 2.1l-2.856-.399c.378-1.652 1.1585-2.9295 2.3415-3.8325s2.6775-1.3545 4.4835-1.3545c1.463 0 2.7265.3325 3.7905.9975 1.071.658 1.897 1.5785 2.478 2.7615s.8715 2.555.8715 4.116c0 1.47-.287 2.8-.861 3.99-.567 1.19-1.386 2.135-2.457 2.835-1.064.7-2.338 1.05-3.822 1.05z"/><path d="m56.9579 31.3164c-1.512 0-2.8175-.329-3.9165-.987-1.092-.658-1.9355-1.5785-2.5305-2.7615-.588-1.183-.882-2.5585-.882-4.1265s.294-2.9435.882-4.1265c.595-1.183 1.4385-2.1035 2.5305-2.7615 1.099-.658 2.4045-.987 3.9165-.987 1.736 0 3.192.4305 4.368 1.2915 1.183.861 2.016 2.0265 2.499 3.4965l-2.877.798c-.28-.917-.7525-1.6275-1.4175-2.1315-.665-.511-1.5225-.7665-2.5725-.7665-.959 0-1.7605.2135-2.4045.6405-.637.427-1.1165 1.029-1.4385 1.806s-.483 1.6905-.483 2.7405.161 1.9635.483 2.7405.8015 1.379 1.4385 1.806c.644.427 1.4455.6405 2.4045.6405 1.05 0 1.9075-.2555 2.5725-.7665s1.1375-1.2215 1.4175-2.1315l2.877.798c-.483 1.47-1.316 2.6355-2.499 3.4965-1.176.861-2.632 1.2915-4.368 1.2915z"/><path d="m69.1189 31.0014v-8.82h-3.717v-2.52h10.29v2.52h-3.717v8.82z"/><path d="m78.9365 36.0414 2.184-6.006.042 1.764-4.935-12.138h2.961l3.318 8.589h-.672l3.297-8.589h2.856l-6.405 16.38z"/><path d="m88.4239 33.5214v-4.725c.602 0 1.029-.21 1.281-.63.259-.42.462-1.169.609-2.247.084-.623.154-1.2775.21-1.9635.063-.686.1155-1.3895.1575-2.1105s.0805-1.449.1155-2.184h8.757v9.135h1.1551v4.725h-2.6881v-2.52h-6.909v2.52zm3.654-4.725h4.62v-6.93h-3.423c-.021.385-.0455.77-.0735 1.155-.021.385-.049.7665-.084 1.1445-.028.378-.056.7455-.084 1.1025-.028.35-.0595.686-.0945 1.008-.063.616-.1505 1.1165-.2625 1.5015s-.3115.7245-.5985 1.0185z"/><path d="m113.11 19.6614v11.34h-2.73v-6.93l-5.124 6.93h-2.268v-11.34h2.73v6.699l5.145-6.699z"/><path d="m122.94 31.0014v-3.612h-1.827c-.238 0-.563-.0035-.976-.0105-.406-.014-.788-.0525-1.145-.1155-.903-.161-1.645-.553-2.226-1.176-.574-.623-.861-1.47-.861-2.541 0-1.043.277-1.883.83-2.52s1.291-1.043 2.215-1.218c.378-.077.767-.119 1.166-.126.406-.014.738-.021.997-.021h4.683v11.34zm-7.308 0 2.562-4.2h2.94l-2.52 4.2zm5.166-5.817h2.142v-3.318h-2.142c-.126 0-.266.007-.42.021-.147.014-.301.042-.462.084-.196.056-.378.161-.546.315-.168.147-.304.329-.409.546-.105.21-.158.441-.158.693 0 .399.119.7385.357 1.0185.238.273.504.4515.798.5355.147.042.294.07.441.084.154.014.287.021.399.021z"/><path d="m41.2598 25.4784v-2.205h6.3v2.205z"/></g></svg>