<?xml version="1.0" encoding="UTF-8"?><!DOCTYPE svg PUBLIC "-//W3C//DTD SVG 1.1//EN" "http://www.w3.org/Graphics/SVG/1.1/DTD/svg11.dtd"><svg xmlns="http://www.w3.org/2000/svg"><symbol id="arrow-left" viewBox="0 0 20 20"><path d="M17 9.383H6.288L9.06 6.77 8.244 6 4 10l4.244 4 .816-.77-2.763-2.604H17V9.383z"/></symbol><symbol id="arrow-right" viewBox="0 0 20 20"><path d="M4 10.617h10.712L11.94 13.23l.816.77L17 10l-4.244-4-.816.77 2.763 2.604H4v1.243z"/></symbol><symbol id="cross" viewBox="0 0 20 20"><path d="M2.931 2.929a1 1 0 0 1 1.414 0l12.728 12.728a1 1 0 0 1-1.414 1.414L2.931 4.343a1 1 0 0 1 0-1.414z"/><path d="M17.072 2.929a1 1 0 0 1 0 1.414L4.344 17.07a1 1 0 0 1-1.414-1.414L15.657 2.929a1 1 0 0 1 1.415 0z"/></symbol><symbol id="door" viewBox="0 0 24 24"><path d="M14 3a1 1 0 0 1 1-1h4a3 3 0 0 1 3 3v14a3 3 0 0 1-3 3h-4a1 1 0 1 1 0-2h4a1 1 0 0 0 1-1V5a1 1 0 0 0-1-1h-4a1 1 0 0 1-1-1zM9.293 6.293a1 1 0 0 1 1.414 0l5 5a1 1 0 0 1 0 1.414l-5 5a1 1 0 0 1-1.414-1.414L12.586 13H3a1 1 0 1 1 0-2h9.586L9.293 7.707a1 1 0 0 1 0-1.414z"/></symbol><symbol id="filters" viewBox="0 0 24 24"><path fill-rule="evenodd" clip-rule="evenodd" d="M5 7a1 1 0 0 1 1-1h9a1 1 0 1 1 0 2H6a1 1 0 0 1-1-1zM5 12a1 1 0 0 1 1-1h12a1 1 0 1 1 0 2H6a1 1 0 0 1-1-1zM5 17a1 1 0 0 1 1-1h6a1 1 0 1 1 0 2H6a1 1 0 0 1-1-1z"/></symbol><symbol id="geo" viewBox="0 0 16 16"><path fill-rule="evenodd" clip-rule="evenodd" d="M8.242 2.666A4.242 4.242 0 0 0 3.999 6.91c0 1.64 1.071 3.251 2.272 4.519a15.922 15.922 0 0 0 1.97 1.751 15.916 15.916 0 0 0 1.97-1.752c1.202-1.267 2.273-2.877 2.273-4.518a4.242 4.242 0 0 0-4.242-4.243zm0 11.334l-.37.554-.002-.001-.004-.003-.013-.008-.046-.032a15.624 15.624 0 0 1-.748-.56c-.477-.38-1.115-.93-1.756-1.605-1.254-1.324-2.637-3.26-2.637-5.436a5.576 5.576 0 1 1 11.152 0c0 2.177-1.384 4.112-2.638 5.436a17.257 17.257 0 0 1-2.504 2.165l-.046.032-.013.008-.003.003h-.002L8.242 14zm0 0l.37.554a.667.667 0 0 1-.74 0l.37-.554zm0-8.06a.97.97 0 1 0 0 1.938.97.97 0 0 0 0-1.939zm-2.303.969a2.303 2.303 0 1 1 4.606 0 2.303 2.303 0 0 1-4.606 0z"/></symbol><symbol id="magnifier" viewBox="0 0 24 24"><path fill-rule="evenodd" clip-rule="evenodd" d="M11 4a7 7 0 1 0 4.856 12.041.998.998 0 0 1 .185-.185A7 7 0 0 0 11 4zm7.032 12.618a9 9 0 1 0-1.414 1.414l3.675 3.675a1 1 0 0 0 1.414-1.414l-3.675-3.675z"/></symbol><symbol id="score-green" viewBox="0 0 41 40"><path fill-rule="evenodd" clip-rule="evenodd" d="M12.63 36.782l-4.436.23 8.046-17.278-.097-.2.236-.1 1.407-3.02 2.96 1.184 2.808-1.18 1.385 2.859.311.124-.123.264 8.345 17.218-4.44-.155-2.97 3.27-5.306-10.945L15.66 40l-3.03-3.218z" fill="#D0D998"/><path fill-rule="evenodd" clip-rule="evenodd" d="M35.145 14.861c0 .722-1.324 1.332-1.433 2.022-.113.71.954 1.693.736 2.361-.224.68-1.673.854-1.996 1.482-.327.635.38 1.9-.04 2.47-.423.575-1.855.298-2.36.799-.507.501-.227 1.92-.806 2.338-.578.416-1.854-.284-2.494.04-.634.32-.81 1.755-1.496 1.976-.674.217-1.667-.84-2.383-.729-.698.109-1.313 1.42-2.04 1.42-.729 0-1.345-1.311-2.041-1.42-.716-.111-1.71.946-2.383.729-.687-.22-.862-1.656-1.496-1.977-.64-.324-1.916.376-2.493-.04-.58-.418-.3-1.837-.806-2.338-.507-.5-1.939-.223-2.36-.798-.421-.572.286-1.836-.041-2.47-.324-.628-1.773-.802-1.996-1.482-.219-.668.849-1.652.736-2.361-.11-.69-1.433-1.3-1.433-2.022 0-.72 1.323-1.33 1.433-2.022.113-.709-.956-1.692-.736-2.36.222-.68 1.67-.854 1.995-1.482.327-.634-.38-1.899.04-2.47.422-.575 1.855-.298 2.36-.799.507-.501.227-1.92.807-2.339.577-.415 1.853.284 2.493-.04.634-.32.81-1.755 1.496-1.976.674-.217 1.668.84 2.384.73.696-.11 1.312-1.421 2.04-1.421.729 0 1.344 1.311 2.042 1.42.716.111 1.708-.946 2.383-.729.686.221.862 1.656 1.495 1.977.641.324 1.917-.376 2.494.04.58.418.3 1.837.806 2.339.506.5 1.939.223 2.36.798.42.571-.286 1.836.04 2.47.324.628 1.773.802 1.996 1.482.219.668-.849 1.652-.736 2.36.109.691 1.433 1.301 1.433 2.022z" fill="#B2BE65"/><path fill-rule="evenodd" clip-rule="evenodd" d="M24.698 20.142l-3.74-1.901-3.738 1.901.713-4.027-3.024-2.852 4.18-.588 1.87-3.664 1.87 3.664 4.18.588-3.025 2.852.714 4.027z" fill="#fff"/></symbol><symbol id="score-orange" viewBox="0 0 41 40"><path fill-rule="evenodd" clip-rule="evenodd" d="M12.296 36.782l-4.436.23 8.046-17.278-.096-.2.236-.1 1.406-3.02 2.96 1.184 2.808-1.18 1.386 2.859.31.124-.122.264 8.345 17.218-4.44-.155-2.971 3.27-5.305-10.945L15.325 40l-3.03-3.218z" fill="#EA6A00"/><path fill-rule="evenodd" clip-rule="evenodd" d="M34.812 14.861c0 .722-1.325 1.332-1.434 2.022-.112.71.955 1.693.736 2.361-.223.68-1.672.854-1.995 1.482-.327.635.38 1.9-.04 2.47-.423.575-1.855.298-2.361.799-.506.501-.227 1.92-.806 2.338-.578.416-1.853-.284-2.494.04-.633.32-.81 1.755-1.496 1.976-.674.217-1.666-.84-2.382-.729-.698.109-1.313 1.42-2.041 1.42s-1.344-1.311-2.04-1.42c-.716-.111-1.71.946-2.384.729-.686-.22-.861-1.656-1.495-1.977-.64-.324-1.917.376-2.494-.04-.58-.418-.3-1.837-.806-2.338-.506-.5-1.938-.223-2.36-.798-.42-.572.286-1.836-.04-2.47-.325-.628-1.774-.802-1.996-1.482-.22-.668.848-1.652.736-2.361-.11-.69-1.433-1.3-1.433-2.022 0-.72 1.323-1.33 1.433-2.022.112-.709-.956-1.692-.736-2.36.222-.68 1.67-.854 1.995-1.482.326-.634-.38-1.899.04-2.47.422-.575 1.855-.298 2.36-.799.506-.501.226-1.92.806-2.339.578-.415 1.854.284 2.494-.04.634-.32.81-1.755 1.496-1.976.674-.217 1.667.84 2.383.73.697-.11 1.313-1.421 2.04-1.421.729 0 1.345 1.311 2.043 1.42.715.111 1.708-.946 2.382-.729.687.221.862 1.656 1.496 1.977.64.324 1.917-.376 2.494.04.58.418.3 1.837.806 2.339.505.5 1.938.223 2.36.798.42.571-.287 1.836.04 2.47.324.628 1.772.802 1.995 1.482.22.668-.848 1.652-.736 2.36.11.691 1.434 1.301 1.434 2.022z" fill="#FF7502"/><path fill-rule="evenodd" clip-rule="evenodd" d="M24.365 20.142l-3.74-1.901-3.739 1.901.714-4.027-3.025-2.852 4.18-.588 1.87-3.664 1.87 3.664 4.18.588-3.024 2.852.714 4.027z" fill="#fff"/></symbol><symbol id="score-yellow" viewBox="0 0 41 40"><path fill-rule="evenodd" clip-rule="evenodd" d="M11.962 36.782l-4.435.23 8.046-17.278-.097-.2.236-.1 1.407-3.02 2.96 1.184 2.808-1.18 1.385 2.859.311.124-.123.264 8.345 17.218-4.44-.155-2.97 3.27-5.306-10.945L14.992 40l-3.03-3.218z" fill="#E4A444"/><path fill-rule="evenodd" clip-rule="evenodd" d="M34.478 14.861c0 .722-1.324 1.332-1.433 2.022-.113.71.954 1.693.736 2.361-.224.68-1.673.854-1.996 1.482-.327.635.38 1.9-.04 2.47-.423.575-1.855.298-2.36.799-.507.501-.227 1.92-.806 2.338-.578.416-1.854-.284-2.494.04-.634.32-.81 1.755-1.497 1.976-.673.217-1.666-.84-2.382-.729-.697.109-1.313 1.42-2.04 1.42-.729 0-1.345-1.311-2.041-1.42-.716-.111-1.71.946-2.383.729-.687-.22-.862-1.656-1.496-1.977-.64-.324-1.916.376-2.493-.04-.58-.418-.3-1.837-.806-2.338-.506-.5-1.939-.223-2.36-.798-.421-.572.286-1.836-.041-2.47-.324-.628-1.773-.802-1.996-1.482-.219-.668.849-1.652.736-2.361-.11-.69-1.433-1.3-1.433-2.022 0-.72 1.323-1.33 1.433-2.022.113-.709-.956-1.692-.736-2.36.222-.68 1.67-.854 1.995-1.482.327-.634-.38-1.899.04-2.47.422-.575 1.855-.298 2.36-.799.507-.501.227-1.92.807-2.339.577-.415 1.853.284 2.493-.04.634-.32.81-1.755 1.496-1.976.674-.217 1.668.84 2.384.73.696-.11 1.312-1.421 2.04-1.421.729 0 1.344 1.311 2.042 1.42.716.111 1.708-.946 2.383-.729.686.221.862 1.656 1.495 1.977.641.324 1.917-.376 2.494.04.58.418.3 1.837.806 2.339.506.5 1.938.223 2.36.798.42.571-.286 1.836.04 2.47.324.628 1.773.802 1.996 1.482.219.668-.849 1.652-.736 2.36.109.691 1.433 1.301 1.433 2.022z" fill="#FFD046"/><path fill-rule="evenodd" clip-rule="evenodd" d="M24.031 20.142l-3.74-1.901-3.738 1.901.713-4.027-3.024-2.852 4.18-.588 1.87-3.664 1.87 3.664 4.18.588-3.025 2.852.714 4.027z" fill="#fff"/></symbol><symbol id="star" viewBox="0 0 24 24"><path fill-rule="evenodd" clip-rule="evenodd" d="M12 2.5a.5.5 0 0 1 .448.279l2.792 5.657 6.244.907a.5.5 0 0 1 .277.853L17.243 14.6l1.067 6.218a.5.5 0 0 1-.726.527L12 18.409l-5.584 2.936a.5.5 0 0 1-.726-.527L6.757 14.6l-4.518-4.404a.5.5 0 0 1 .277-.853l6.244-.907 2.792-5.657A.5.5 0 0 1 12 2.5zm0 1.63L9.54 9.114a.5.5 0 0 1-.376.274l-5.501.8 3.98 3.879a.5.5 0 0 1 .144.443l-.94 5.478 4.92-2.587a.5.5 0 0 1 .466 0l4.92 2.587-.94-5.478a.5.5 0 0 1 .144-.443l3.98-3.88-5.5-.8a.5.5 0 0 1-.377-.273L12 4.13z"/></symbol></svg>